<svg width="1579" height="3983" viewBox="0 0 1579 3983" fill="none" xmlns="http://www.w3.org/2000/svg">
<path fill-rule="evenodd" clip-rule="evenodd" d="M344.543 1990.41C344.084 1991.6 348.796 2006.72 349.618 2006.72C351.068 2006.72 350.875 2004.62 348.82 1998.14C346.549 1990.94 345.244 1988.55 344.543 1990.41ZM354.282 1997.15C353.533 1997.73 353.992 2003.8 354.838 2004.31C355.949 2005.01 356.529 2003.82 356.505 2000.85C356.505 1997.37 355.708 1996.07 354.282 1997.15ZM366.292 1999.21C361.725 2000.85 357.472 2005.39 359.187 2006.77C360.106 2007.5 360.637 2007.3 362.305 2005.54C365.761 2001.91 371.44 1999.26 371.875 2001.02C372.165 2002.2 371.488 2003.36 369.265 2005.54C365.277 2009.41 368.419 2009.36 370.57 2007.88C373.711 2005.76 377.046 2004.72 377.264 2005.8C377.771 2008.25 374.702 2010.23 372.89 2011.36C371.391 2012.31 372.503 2012.98 373.663 2012.52C374.726 2012.11 376.659 2011.15 377.844 2010.4C381.42 2008.15 379.656 2003.56 375.209 2003.56H373.953L374.098 2002.4C374.436 1999.55 370.207 1997.81 366.292 1999.21ZM330.285 1999.69C327.989 2000.73 328.617 2002.32 328.497 2002.81L326.612 2002.01C319.676 1999.01 312.305 1998.97 310.179 2001.87C307.545 2005.49 310.348 2011.15 316.172 2013.97C319.918 2015.79 320.619 2014.53 316.921 2012.67C312.91 2010.64 311.121 2005.44 313.61 2002.98C315.882 2000.71 323.011 2001.43 327.772 2004.43C331.59 2006.84 332.387 2007.25 333.185 2007.4C334.393 2007.59 334.321 2007.16 332.943 2005.93C331.034 2004.23 330.768 2003.32 331.807 2002.16C333.596 2000.17 338.018 2001.19 341.45 2004.38C343.601 2006.36 345.268 2007.06 345.582 2006.09C345.751 2005.61 342.658 2002.59 340.99 2001.6C337.486 1999.5 332.629 1998.65 330.285 1999.69ZM292.538 2010.66C293.48 2011.07 308.366 2016.66 310.928 2016.92C314.19 2017.26 312.209 2015.35 312.209 2015.33C309.478 2013.25 298.047 2009.74 293.649 2009.38C292.078 2009.26 290.532 2009.79 292.538 2010.66ZM387.703 2013.3C375.596 2014.29 375.862 2014.24 376.2 2015.52C376.611 2017.16 378.424 2017.16 387.099 2015.54C394.736 2014.09 392.923 2012.86 387.703 2013.3ZM298.337 2016.27C297.129 2017.14 298.048 2017.57 303.992 2018.93C307.497 2019.72 310.227 2019.27 307.786 2018.3C302.808 2016.34 299.304 2015.59 298.337 2016.27ZM377.554 2018.06C374.726 2018.61 377.336 2020.26 381.058 2020.26C386.858 2020.26 386.447 2018.3 380.574 2017.98C379.366 2017.94 378.013 2017.96 377.554 2018.06ZM290.169 2022.55C286.496 2023.49 284.611 2024.87 284.031 2027.05C283.04 2030.7 286.641 2035.96 290.097 2035.96C290.46 2035.96 290.483 2036.18 290.387 2037.66C289.831 2045.53 298.386 2046.52 305.152 2039.4C307.061 2037.37 305.467 2036.98 302.543 2038.74C294.181 2043.79 288.647 2040.02 296.718 2034.78C298.386 2033.69 298.7 2033.04 297.927 2032.27C297.443 2031.78 297.419 2031.78 294.543 2032.39C291.474 2033.04 289.396 2032.92 287.68 2031.98C283.041 2029.46 290.773 2024.17 299.111 2024.15C301.068 2024.15 301.334 2023.98 300.681 2023.11C299.739 2021.88 293.915 2021.59 290.169 2022.55ZM377.916 2022.75C377.529 2023.62 377.505 2023.57 379.97 2025.55C383.571 2028.45 376.925 2032.85 369.772 2032.29C368.226 2032.17 367.791 2033.09 368.709 2034.51C371.754 2039.13 365.664 2041.64 357.689 2039.06C353.798 2037.8 355.466 2040.27 359.477 2041.72C365.35 2043.84 371.609 2040.85 371.633 2035.92V2034.51H373.107C378.279 2034.51 383.716 2030.41 383.716 2026.49C383.692 2023.83 378.81 2020.67 377.916 2022.75ZM345.485 2037.8C345.171 2038.62 347.201 2046.21 348.385 2049.3C349.279 2051.62 351.913 2051.89 349.594 2046.23C347.467 2040.99 346.234 2035.87 345.485 2037.8ZM348.844 2037.61C347.539 2038.07 351.237 2044.93 352.783 2044.93C353.798 2044.93 353.533 2043.84 351.744 2040.7C350.198 2037.99 349.594 2037.34 348.844 2037.61ZM340.145 2038.55C339.975 2038.62 339.202 2039.61 338.429 2040.77C335.142 2045.68 330.188 2047.35 330.188 2043.55C330.188 2042.78 329.874 2042.49 329.004 2042.49C328.787 2042.49 327.723 2043.14 326.66 2043.94C320.763 2048.41 316.293 2046.84 318.637 2041.45C319.773 2038.84 319.12 2038.55 317.405 2039.78C315.906 2040.85 315.036 2043.89 316.22 2045.65C318.492 2049.06 324.123 2049.3 327.917 2046.21C328.883 2045.41 329.004 2045.39 329.391 2045.73C330.913 2047.1 333.982 2047.49 335.94 2046.57C337.946 2045.61 341.764 2040.85 341.764 2039.32C341.788 2038.67 340.894 2038.26 340.145 2038.55ZM307.762 2041.21C302.856 2045.15 305.152 2045.07 306.675 2044.13C308.801 2042.8 312.33 2039.54 311.943 2038.91C311.605 2038.31 310.855 2038.72 307.762 2041.21ZM311.774 2041.4C305.37 2047.03 301.213 2053.27 303.702 2053.56C305.176 2053.73 315.592 2041.23 314.891 2040.12C314.432 2039.4 313.707 2039.69 311.774 2041.4Z" fill="black"/>
<path fill-rule="evenodd" clip-rule="evenodd" d="M515.015 1968.19C477.212 1974.31 456.695 2020.24 477.745 2051.64C488.098 2067.11 515.392 2078.68 533.493 2075.26C536.191 2074.76 536.285 2073.13 533.619 2073.22C519.846 2075.36 507.956 2070.03 507.956 2070.03C534.278 2073.44 558.183 2056.57 565.618 2030.28C575.971 1993.51 550.622 1962.42 515.015 1968.19ZM531.485 1971.58C534.058 1972.24 536.819 1974.09 538.105 1975.66C540.27 1978.29 540.301 1975.09 538.419 1973.05L537.258 1971.77C537.289 1971.8 571.736 1982.25 561.885 2025.16C558.089 2041.66 547.36 2057.19 530.419 2064.16C497.039 2077.87 469.212 2052.46 475.141 2013.68C479.094 1988.08 509.4 1965.81 531.485 1971.58Z" fill="black"/>
<path fill-rule="evenodd" clip-rule="evenodd" d="M696.671 1977.59C691.847 1979.31 690.482 1984.57 690.453 1984.6C690.453 1984.6 670.692 1985.06 667.089 1985.12C655.087 1985.29 662.613 1987.36 666.624 1987.62C671.448 1987.94 688.36 1987.33 690.539 1987.27C692.051 1995.58 705.476 1994.86 709.69 1987.5C710.01 1986.95 710.475 1986.95 725.382 1986.95C743.777 1986.95 744.532 1987.04 747.061 1989.3C749.182 1991.19 750.025 1990.12 748.252 1987.76C746.421 1985.38 743.777 1984.1 739.447 1983.58C734.74 1983 716.548 1983.23 710.881 1983.96C710.503 1984.02 710.242 1983.7 709.952 1982.91C709.283 1980.96 706.842 1978.93 705.186 1978.93C704.721 1978.93 704.169 1978.7 703.936 1978.44C702.977 1977.22 699.025 1976.75 696.671 1977.59ZM703.297 1979.51C703.384 1979.66 703.704 1979.8 703.965 1979.8C708.353 1979.8 706.9 1986.78 701.989 1989.16C695.335 1992.39 691.586 1986.37 696.991 1981.14C698.647 1979.54 702.658 1978.49 703.297 1979.51ZM652.065 1987.39C646.689 1990.03 645.701 1995.03 645.149 2022.08C644.393 2058.73 646.718 2064.48 662.904 2065.88C668.338 2066.34 724.569 2066.28 734.391 2065.82C750.548 2065.01 751.507 2064.66 752.001 2059.02C752.117 2057.74 752.437 2054.4 752.698 2051.58C754.209 2035.66 753.076 1994.83 751.042 1992.39C749.589 1990.64 749.356 1996.02 749.356 2031.82C749.356 2059.66 748.484 2059.37 743.108 2061.84C743.108 2061.84 685.977 2062.13 676.853 2062.22C654.128 2062.48 655.116 2062.48 653.837 2061.84C650.147 2059.92 649.246 2053.09 649.275 2028.04C649.333 1998.08 650.059 1992.12 654.07 1988.69C656.046 1987.01 654.651 1986.11 652.065 1987.39Z" fill="black"/>
<path fill-rule="evenodd" clip-rule="evenodd" d="M843.611 2017.28C832.264 2018.87 824.334 2022.37 825.774 2025.12C827.45 2028.36 832.028 2028.64 877.349 2028.13C921.08 2027.63 933.974 2026.5 933.974 2023.14C933.974 2019.81 929.741 2017.71 921.338 2016.85C913.108 2016.01 917.449 2018.46 921.51 2018.91C926.41 2019.45 927.291 2019.55 928.602 2019.9C930.966 2020.5 931.653 2021.1 931.009 2022.05C928.752 2025.44 882.85 2025.48 855.537 2026.22C833.296 2026.8 825.624 2026.3 828.095 2024.41C838.754 2016.29 896.238 2016.09 909.562 2016.74C918.609 2017.17 915.407 2016.14 906.253 2015.45C906.231 2015.43 868.753 2013.75 843.611 2017.28Z" fill="black"/>
<path fill-rule="evenodd" clip-rule="evenodd" d="M1022.61 1985.96L1020.24 1988.27L1018.89 1987.79C1016.18 1986.81 1015.35 1988.33 1017.69 1989.96C1018.26 1990.36 1018.24 1990.45 1016.43 1992.82C1002.22 2011.66 1002.85 2037.85 1017.95 2055.27C1020.41 2058.1 1020.49 2057.3 1017.23 2061.1L1015.38 2063.27C1013.72 2064.62 1016.03 2066.28 1016.86 2065.07C1017.32 2064.76 1018.72 2063.53 1019.95 2062.36C1022.67 2059.81 1022.32 2060.33 1025.01 2062.44C1049.6 2081.49 1087.06 2074.68 1105.13 2048.55C1106.16 2047.03 1107.05 2045.77 1107.11 2045.72C1107.16 2045.66 1107.82 2046.09 1108.59 2046.63C1110.08 2047.72 1111.59 2048.2 1111.91 2047.72C1112.22 2047.23 1111.25 2045.66 1110.31 2045.14C1109.08 2044.49 1108.48 2043.92 1108.22 2043.74L1109.56 2040.91C1118.49 2022.1 1115.25 2000.11 1101.41 1985.76L1098.56 1982.78C1099.73 1981.12 1100.33 1980.55 1098.81 1979.15C1097.01 1977.46 1096.84 1977.89 1094.61 1979.67C1092.61 1978.29 1091.12 1977.03 1088.89 1977.64C1087.35 1978.06 1087.38 1978.78 1088.95 1979.72C1090.64 1980.69 1091.86 1981.81 1092.32 1982.15C1067.99 2007.34 1082 1992.7 1062.27 2012.83C1062.24 2012.81 1029.64 1993.25 1023.04 1989.84C1023.04 1989.84 1045.06 1963.68 1082 1976.41C1086.32 1977.89 1087.35 1976.46 1084.03 1974.78C1066.44 1965.85 1039.34 1969.54 1022.61 1985.96ZM1099.18 1988.21C1110.62 2001.08 1114.17 2018.32 1108.76 2034.85C1107.93 2037.34 1106.25 2041.48 1105.9 2041.83C1105.73 2042 1069.88 2017.27 1067.02 2015.66C1074.77 2007.54 1086.95 1995.33 1093.15 1988.36C1096.47 1984.67 1096.01 1984.67 1099.18 1988.21ZM1024.73 1994.08C1035.56 1999.85 1060.55 2014.46 1060.58 2014.49C1055.81 2019.55 1053.81 2021.07 1021.52 2056.01L1020.24 2054.61C1005.94 2039.05 1005.63 2013.09 1019.49 1994.11C1021.47 1991.45 1020.58 1991.87 1024.73 1994.08ZM1104.59 2044.14C1104.62 2045.43 1098.64 2053.07 1094.64 2056.84C1075.25 2075.05 1043.83 2076.48 1025.67 2059.96L1024.1 2058.53C1024.13 2058.5 1064.27 2017.29 1064.93 2017.29C1065.56 2017.32 1104.56 2043.49 1104.59 2044.14Z" fill="black"/>
<path fill-rule="evenodd" clip-rule="evenodd" d="M1236.43 1967.65C1223.87 1969.03 1212.49 1973.8 1202.66 1985.49C1176.1 2017.04 1188.93 2050.72 1228.83 2057.06C1252.09 2060.75 1245.45 2070.34 1237.81 2072.59C1234.72 2073.49 1234.66 2074.66 1237.6 2075.51C1250.88 2079.2 1297.09 2054.23 1292.92 2012.41C1291.17 1994.84 1283.57 1982.82 1269.84 1975.88C1264.13 1972.99 1263.47 1974.38 1269.03 1977.65C1273.3 1980.14 1277.44 1983.84 1280.12 1987.51C1284.65 1993.75 1287.78 2002.38 1288.53 2010.82C1290.69 2035.43 1276.75 2057.09 1257.01 2066.97C1254.94 2068 1247.67 2071.03 1247.25 2071.03C1246.86 2071.03 1254.94 2058.74 1233.28 2055.56C1222.55 2053.96 1218.02 2052.82 1212.67 2050.3C1193.86 2041.44 1188.72 2020.91 1199.78 1998.92C1213.63 1971.37 1234.39 1968.67 1254.85 1972.63C1261.1 1973.83 1261.76 1972.18 1255.45 1970.29C1248.27 1968.07 1241.3 1967.1 1236.43 1967.65Z" fill="black"/>
<path fill-rule="evenodd" clip-rule="evenodd" d="M1412.11 1984.23C1400.76 1984.51 1391.16 1985.14 1384.58 1986.03C1375.79 1987.24 1379.64 1989.38 1388.47 1988.59C1424.88 1985.35 1461.06 1986.77 1465.19 1991.6L1465.91 1992.43C1465.91 1992.43 1465.38 2025.92 1465.38 2029.92C1465.38 2035.83 1465.26 2039.83 1464.83 2042.65C1463.35 2052.39 1456.57 2050.83 1453.73 2050.97C1430.26 2052.08 1419.04 2050.55 1381.63 2052.41C1375.95 2052.69 1372.84 2049.72 1371.46 2040.98C1369.81 2030.39 1370.07 2011.17 1372.08 1997.13C1372.88 1991.43 1374.18 1989.02 1376.67 1988.51C1378.41 1988.17 1377.1 1986.98 1375.28 1987.26C1371.61 1987.83 1370.07 1991.07 1369.01 2000.31C1367.59 2012.91 1365.72 2035.62 1369.94 2047.52C1371.61 2052.24 1377.16 2055.42 1383.14 2055.08C1384.45 2055 1385.51 2055 1385.51 2055.06C1385.51 2055.13 1384.83 2055.95 1384.02 2056.9C1382.39 2058.79 1382.35 2058.87 1382.94 2059.19C1383.66 2059.57 1383.88 2059.45 1386.38 2057.2L1388.83 2055L1396.37 2054.51L1394.76 2056.25C1393.09 2058.05 1392.96 2058.28 1393.39 2058.73C1394.02 2059.36 1394.7 2058.98 1397.33 2056.65L1399.93 2054.32L1405.31 2054.05L1404.08 2055.49C1402.33 2057.56 1402.16 2057.86 1402.47 2058.24C1403 2058.87 1403.6 2058.56 1405.86 2056.38C1408.47 2053.85 1408.34 2053.9 1412.26 2053.9H1415.01L1413.62 2055.42C1412.05 2057.16 1411.37 2058.22 1411.69 2058.51C1412.37 2059.15 1412.73 2058.96 1415.39 2056.42L1418.04 2053.9H1420.61C1423.78 2053.9 1423.72 2053.79 1421.94 2055.87C1420.01 2058.09 1419.95 2058.24 1420.54 2058.64C1421.35 2059.19 1421.58 2059.04 1424.1 2056.54L1426.54 2054.11H1433.53C1433.23 2054.45 1431.83 2055.78 1430.79 2057.16C1429.71 2058.37 1430.31 2059.89 1432.55 2058.01C1433.04 2057.6 1433.65 2057.03 1434.48 2056.27L1437.04 2053.9H1440.13C1443.08 2053.9 1443.23 2053.92 1442.93 2054.28C1440.05 2057.71 1439.56 2058.56 1440.33 2058.85C1440.98 2059.11 1441.24 2058.96 1442.34 2057.67C1442.95 2056.95 1443.99 2055.76 1444.65 2055.04L1445.88 2053.75L1449.41 2053.6C1453.65 2053.41 1453.48 2053.3 1451.93 2055.23C1449.81 2057.86 1449.62 2058.24 1450.37 2058.43C1450.68 2058.51 1451.42 2057.88 1453.42 2055.85L1456.06 2053.16L1457.72 2052.92C1465.43 2051.82 1467.59 2048.67 1468.26 2037.52L1468.41 2035.19L1471.34 2032.38C1475.47 2028.39 1476.44 2027 1475.23 2026.7C1474.43 2026.49 1473.83 2026.89 1471.04 2029.58L1468.5 2032.02L1468.81 2023.27L1471.5 2020.56C1473.75 2018.27 1474.89 2016.72 1474.89 2015.9C1474.94 2013.42 1471.1 2017.38 1469.68 2019.07L1468.84 2020.11L1469.03 2012.32L1471.57 2009.88C1474.91 2006.68 1475.49 2005.79 1474.41 2005.52C1473.77 2005.35 1473.09 2005.81 1470.85 2007.91C1469.94 2008.76 1469.11 2009.46 1469.03 2009.46C1468.86 2009.46 1468.58 2006.26 1468.58 2004.12V2002.91L1471.14 2000.41C1472.56 1999.04 1474.09 1997.38 1474.53 1996.71C1474.53 1996.69 1476.16 1993.74 1473.37 1995.58C1472.73 1996.01 1471.89 1996.75 1470.68 1997.94L1468.67 1999.91V1997.32C1468.67 1995.01 1468.58 1994.59 1468.07 1993.28L1467.5 1991.81C1467.84 1991.5 1466.68 1992.72 1470.81 1988.74C1472.14 1987.45 1470.91 1986.84 1469.7 1987.43C1469.07 1987.75 1468.33 1988.34 1467.5 1989.21L1466.4 1990.37L1465.3 1989.34C1460.51 1984.8 1445.88 1983.4 1412.11 1984.23ZM1472.59 2042.97C1471.25 2043.69 1461.68 2054.15 1460.83 2055.82C1460.19 2057.07 1460.98 2057.65 1462.06 2056.76C1464.94 2054.38 1473.9 2045.06 1474.17 2044.15C1474.72 2042.31 1473.09 2042.69 1472.59 2042.97Z" fill="black"/>
<path fill-rule="evenodd" clip-rule="evenodd" d="M156.932 2157.83C120.385 2163.88 98.0451 2180.99 104.343 2202.29C107.17 2211.83 116.715 2219.4 130.154 2222.69C143.345 2225.94 151.576 2226.21 163.131 2225.67C163.131 2225.67 163.279 2227.88 161.122 2230.58C158.519 2233.85 154.254 2236.11 154.229 2236.13C152.841 2234.82 151.973 2233.97 151.378 2233.55C149.766 2232.44 150.089 2234.47 146.915 2239.13C141.807 2246.62 141.832 2247.39 147.188 2246.69C154.601 2245.73 158.469 2245.31 159.808 2245.28C161.717 2245.26 161.767 2244.74 160.007 2242.95L158.742 2241.69L160.279 2241.12C165.61 2239.18 171.362 2233.85 174.139 2227.63C176.272 2222.89 175.181 2223.41 176.991 2222.79C183.041 2220.71 191.272 2215.68 197.868 2210C223.332 2188.1 212.199 2161.43 175.33 2158.15C169.081 2157.61 170.197 2159.84 176.619 2160.76C188.446 2162.44 204.761 2166.51 208.281 2178.01C212.447 2191.65 197.198 2211.09 175.503 2219.82C174.139 2220.36 173.123 2221.58 172.825 2223.04C171.561 2229.31 170.197 2231.87 163.478 2236.38C159.982 2238.74 157.552 2240.22 156.907 2240.4C155.791 2240.69 156.535 2241.36 158.271 2243.35C158.246 2243.35 146.989 2244.44 146.989 2244.44C148.502 2242.13 149.147 2241.12 150.957 2235.96C151.031 2235.71 151.452 2236.01 152.271 2236.9C153.337 2238.04 154.304 2238.56 154.304 2237.97C154.304 2237.84 154.626 2237.74 154.998 2237.62C157.031 2236.88 162.536 2232.31 164.147 2229.02C167.023 2223.09 167.172 2223.19 155.097 2223.16C127.055 2223.11 110.492 2216.05 106.599 2202.49C101.219 2183.69 125.22 2164.33 157.329 2161.43C170.271 2160.24 163.428 2156.76 156.932 2157.83Z" fill="black"/>
<path d="M380.091 2150.4C380.308 2150.03 379.831 2149.38 379.073 2149.03C377.881 2148.49 355.347 2147.91 344.448 2148.12C321.676 2148.6 296.542 2151.37 298.21 2153.22C298.665 2153.74 298.427 2153.74 303.93 2153C309.369 2152.28 322.044 2151.55 331.556 2151.05C320.571 2152.15 310.105 2154.06 302.305 2154.91C296.91 2155.49 296.802 2155.54 297.972 2156.64C299.228 2157.83 299.77 2157.9 303.475 2157.38C313.681 2155.95 333.095 2154.82 355.065 2154.37C373.764 2153.98 376.039 2153.82 375.758 2152.98C375.216 2151.27 363.147 2151.59 344.99 2151.59C352.66 2151.01 357.189 2150.57 370.774 2150.57C376.538 2150.62 380.005 2150.53 380.091 2150.4Z" fill="black"/>
<path d="M296.542 2245.48L297.17 2245.39C297.647 2248.88 297.625 2249.68 298.882 2250C299.575 2250.18 300.464 2249.57 300.464 2248.68C300.464 2247.62 300.355 2245.87 300.139 2243.05C299.727 2237.68 299.445 2229.16 298.622 2197.33C298.145 2178.76 298.34 2188.14 297.214 2169.38C296.39 2155.43 296.325 2154.91 295.307 2155.01C294.375 2155.12 294.05 2165.26 294.592 2175.99C295.459 2192.54 295.394 2206.99 295.329 2206.11C294.96 2200.99 294.354 2189.31 294.159 2184.22C293.725 2172.02 292.447 2155.01 291.948 2154.36C291.515 2153.82 290.757 2154.04 290.627 2154.78C290.432 2155.75 290.453 2161.93 290.713 2171.33C290.822 2175.86 292.75 2226.3 292.88 2228.86C293.595 2243.33 294.137 2245.82 296.542 2245.48Z" fill="black"/>
<path d="M384.229 2244.76H383.536C382.301 2220.36 381.044 2207.28 380.632 2171.46C380.437 2154.45 380.459 2154.62 379.441 2154.78C378.812 2154.86 378.726 2156.49 378.661 2170.98C378.617 2180.15 378.552 2182.34 378.422 2180.19C377.686 2169.14 377.317 2162.97 377.144 2159.5C377.079 2157.94 377.014 2156.9 376.949 2156.19C376.819 2154.93 375.107 2152.67 374.912 2156.12C374.804 2157.98 374.891 2161.28 375.194 2166.13C375.432 2170.1 375.454 2174.02 375.237 2188.77C374.934 2211.74 375.064 2217.44 376.472 2237.03C376.797 2241.47 376.992 2245.15 376.927 2245.17C376.797 2245.26 375.367 2245.3 359.377 2245.95C335.283 2246.91 319.379 2248.03 302.63 2249.96C296.108 2250.72 298.73 2250.48 297.148 2250.61C295.306 2250.76 295.003 2251.09 295.913 2251.91C296.325 2252.28 296.693 2252.3 299.553 2252.26C307.592 2252.13 318.924 2251.74 326.507 2251.37C334.199 2250.98 345.466 2250.63 343.473 2250.85C339.269 2251.3 331.556 2251.65 316.822 2253.43C306.465 2254.68 297.56 2255.31 297.083 2254.81C296.845 2254.58 296.13 2254.75 296.13 2255.03C296.13 2256.7 304.796 2256.87 327.331 2255.66C341.718 2254.88 350.19 2254.79 367.914 2255.27C372.789 2255.4 375.476 2255.46 376.862 2255.4C379.484 2255.27 377.382 2253.75 376.754 2253.62C375.216 2253.25 370.969 2253.25 356.863 2253.15C345.25 2253.06 338.229 2252.93 339.464 2252.82C347.915 2252.15 357.448 2251.56 368.304 2251.02C376.754 2250.61 377.057 2250.55 375.844 2249.42C374.891 2248.53 354.263 2248.62 332.856 2249.61C330.364 2249.72 321.589 2250.03 321.589 2250.03C339.529 2248.36 360.85 2247.75 373.59 2247.01C377.707 2246.78 377.122 2246.3 377.512 2250.18C377.902 2254.08 377.859 2253.95 378.682 2253.95C379.051 2253.95 379.332 2253.64 379.311 2253.28L379.029 2246.54L380.762 2246.45C381.022 2249.42 380.914 2249.9 381.803 2250.11C383.579 2250.57 383.449 2249.38 383.557 2246.23L384.489 2246.1C386.114 2245.93 385.898 2244.76 384.229 2244.76ZM380.719 2244.93L378.964 2245.09C378.357 2237.26 377.902 2229.88 377.599 2223.31C377.555 2222.21 378.726 2222.23 378.769 2222.99C379.116 2228.47 379.961 2239.5 380.481 2239.69C380.871 2239.41 380.719 2241.4 380.719 2244.93Z" fill="black"/>
<path fill-rule="evenodd" clip-rule="evenodd" d="M554.777 2162.12C541.923 2151.72 515.752 2152.95 498.623 2171.06C487.566 2182.74 483.889 2201.78 489.99 2215.42C490.589 2216.78 490.643 2217.05 490.316 2217.35C490.099 2217.54 483.481 2223.18 481.82 2224.6C478.143 2227.81 478.361 2227.76 477.408 2225.22C476.046 2221.57 472.479 2219.34 471.988 2221.82C471.226 2225.63 464.445 2245.87 464.445 2246.52C464.445 2248.1 466.869 2249.35 468.993 2248.86C470.817 2248.45 471.879 2248.48 476.155 2247.61C479.941 2246.82 483.317 2246.25 487.865 2245.65C493.584 2244.89 492.876 2244.78 485.905 2238.38L486.531 2237.89C487.838 2236.88 496.253 2231.68 498.595 2230.43L501.046 2229.12L503.497 2230.62C509.243 2234.1 518.203 2238.19 523.459 2239.71C537.784 2243.88 557.419 2236.69 564.718 2224.65C574.031 2209.32 575.393 2192.3 568.367 2179.39C563.547 2170.43 560.905 2167.08 554.777 2162.12ZM513.056 2164C530.104 2153.11 549.739 2155.04 561.776 2176.26C569.892 2190.58 570.164 2202.78 562.648 2218.47C556.221 2231.9 543.721 2239.49 529.668 2238.49C524.222 2238.11 512.157 2233.04 505.567 2228.36C501.482 2225.47 499.657 2224.98 497.397 2226.23C496.58 2226.69 494.973 2227.57 493.857 2228.17C486.613 2232.11 480.812 2236.36 481.329 2237.34C481.656 2237.97 485.932 2241.97 486.259 2241.97C486.531 2241.97 486.749 2242.52 485.905 2242.52C484.897 2242.52 476.836 2243.85 473.35 2244.61C469.429 2245.46 469.646 2245.79 471.144 2241.4C472.805 2236.47 474.303 2230.23 474.739 2228.6L475.474 2229.83C478.415 2234.84 481.874 2230.62 484.761 2228.08C487.675 2225.52 493.176 2220.81 495.355 2219.01C496.226 2218.31 495.6 2217.33 495.6 2217.3C486.667 2199.62 494.456 2175.9 513.056 2164Z" fill="black"/>
<path d="M648.543 2222.84C648.715 2221.03 649.182 2206.63 649.317 2205.39C649.563 2203.23 650.3 2181.69 650.128 2181.53C649.378 2180.78 648.948 2181.9 648.703 2185.29L648.555 2187.28C648.359 2181.77 648.432 2181.91 647.892 2181.63C646.651 2180.99 646.909 2182.16 646.909 2184.64C646.909 2189.15 646.688 2196.61 646.479 2199.45C646.38 2200.87 645.619 2218.56 645.533 2219.25C645.361 2220.69 645.447 2220.92 646.098 2220.86C646.405 2220.84 646.479 2220.78 646.479 2220.52C646.479 2220.05 646.946 2218.06 647.056 2218.06C647.105 2218.06 647.154 2219.26 647.154 2220.75C647.154 2221.71 647.154 2222.36 647.179 2222.8C647.265 2223.92 648.064 2224.34 648.543 2222.84Z" fill="black"/>
<path d="M752.819 2217.19C752.598 2213.93 752.598 2179.94 752.819 2179.76C753.335 2179.36 751.984 2178.52 750.804 2178.51C749.256 2178.5 731.834 2177.77 722.36 2177.58C721.181 2177.55 717.2 2177.58 713.514 2177.63C704.225 2177.75 705.208 2177.87 698.893 2178.12C689.948 2178.46 685.906 2178.74 671.371 2180.03C665.141 2180.59 656.688 2181.52 652.965 2182.04C650.348 2182.4 651.356 2182.96 652.953 2183.08C658.58 2183.49 689.702 2183.5 696.853 2183.03C697.873 2182.97 709.287 2182.42 710.958 2182.29C714.644 2182 717.937 2181.85 724.326 2181.68C729.106 2181.54 747.819 2180.61 748.814 2180.5C751.05 2180.25 750.866 2179.74 750.325 2184.62C749.871 2188.82 749.563 2193.14 749.453 2196.69C749.109 2193.71 748.679 2191.68 748.58 2183.42C748.58 2183.24 748.433 2183.08 748.249 2183.06C747.696 2182.99 747.622 2188.79 748.089 2195.29C748.187 2196.62 748.322 2198.73 748.396 2199.99C748.765 2206.35 749.797 2215.57 750.509 2219.55C750.546 2219.79 750.485 2220.04 750.325 2220.22C750.165 2220.41 749.932 2220.52 749.686 2220.53C745.398 2220.58 734.598 2220.48 732.792 2220.35C724.277 2219.72 720.677 2219.61 707.911 2219.6C693.081 2219.58 687.356 2219.82 672.71 2221C665.203 2221.6 662.008 2221.94 656.491 2222.72C653.616 2223.12 650.741 2223.5 650.115 2223.58C648.198 2223.79 648.001 2223.95 648.751 2224.7C649.23 2225.17 649.402 2225.17 654.747 2224.51C661.382 2223.69 663.519 2223.55 675.302 2223.22C677.698 2223.15 680.352 2223.04 681.2 2222.98C682.846 2222.84 694.617 2222.47 696.251 2222.51C697.345 2222.53 697.173 2222.55 694.101 2222.73C690.501 2222.95 684.112 2223.45 681.507 2223.71C671.346 2224.76 665.399 2225.19 664.92 2224.93C664.023 2224.45 659.354 2225.63 659.698 2226.26C660.411 2227.53 660.915 2226.65 667.869 2226.22C670.683 2226.05 672.648 2225.88 681.077 2225.05C688.56 2224.33 698.635 2223.69 705.405 2223.52C713.649 2223.31 731.121 2222.35 744.919 2222.56C752.402 2222.67 752.021 2222.63 750.718 2221.34L751.566 2221.4C753.126 2221.5 753.102 2221.55 752.819 2217.19ZM702.382 2181.85C700.785 2181.9 698.008 2182.01 696.214 2182.11C692.737 2182.29 676.064 2182.53 662.598 2182.39C672.759 2181.7 683.436 2181.27 699.925 2181.52C705.896 2181.61 706.744 2181.72 702.382 2181.85ZM746.565 2179.59C745.57 2179.73 742.068 2179.64 738.542 2179.89C734.635 2180.17 730.531 2180.11 726.599 2180.41C720.247 2180.91 689.457 2180.35 680.893 2180.66L675.118 2180.87C668.238 2181.11 690.059 2179.66 691.459 2179.59C696.485 2179.33 709.238 2178.82 709.644 2178.8C711.155 2178.72 730.801 2178.84 734.709 2178.96C736.932 2179.04 744.956 2179.47 745.767 2179.48C746.995 2179.51 747.13 2179.52 746.565 2179.59Z" fill="black"/>
<path d="M928.318 2204.17C928.537 2202.33 928.61 2202.1 928.872 2201.98C929.485 2201.75 932.33 2198.06 933.526 2196.12C934.664 2194.26 933.394 2193.61 932.417 2194.53C931.804 2195.11 930.929 2196.07 930.141 2197.06L928.887 2198.65C928.639 2192.99 928.682 2192.12 927.355 2191.21C926.582 2190.69 925.969 2190.76 926.115 2191.36C927.53 2197.47 925.619 2208.73 922.716 2211.48C920.09 2213.94 920.717 2213.83 908.828 2214.15C904.539 2214.26 887.676 2214.75 883.299 2214.82C866.26 2215.11 858.631 2215.36 853.394 2215.77C849.455 2216.07 839.681 2216.42 835.844 2216.44C830.068 2216.45 829.426 2214.77 828.229 2209.2C827.5 2205.82 827.588 2195.9 828.375 2192.16C828.798 2190.19 830.301 2188.02 832.139 2186.77C833.715 2185.69 832.227 2184.78 830.943 2185.36C826.698 2187.29 825.253 2191.94 825.677 2202.42C826.056 2211.92 827.573 2215.36 832.299 2217.39L833.014 2217.69L832.037 2218.77C829.644 2221.41 829.265 2222.48 830.505 2223.13C831.205 2223.51 831.424 2223.15 834.882 2218.45C836.282 2218.42 836.122 2218.41 841.329 2218.47C839.083 2220.83 837.157 2222.61 838.704 2223.44C839.243 2223.73 841.227 2221.83 843.299 2219.06L843.839 2218.35L845.166 2218.28C847.632 2218.13 851.235 2218.04 851.235 2218.13C851.235 2218.17 850.535 2218.95 849.688 2219.84C847.573 2222.07 847.223 2222.8 847.952 2223.53C848.842 2224.42 850.33 2222.16 853.277 2217.94C855.028 2217.78 854.925 2217.76 860.352 2217.58L859.681 2218.29C856.968 2221.16 856.165 2222.71 856.997 2223.54C857.624 2224.17 858.179 2223.72 860.484 2220.64C862.132 2218.44 862.322 2218.03 862.613 2217.52C867.457 2217.18 871.22 2217.15 871.22 2217.27C871.22 2217.34 870.724 2217.9 870.112 2218.49C867.734 2220.84 866.683 2222.43 866.99 2223.18C867.515 2224.46 868.346 2223.95 871.162 2220.65C872.198 2219.44 873.233 2218.17 873.467 2217.82C874.065 2216.95 873.657 2217.08 882.059 2216.88L881.607 2217.36C879.798 2219.28 878.704 2220.58 878.179 2221.48C877.435 2222.78 878.004 2224.34 879.769 2222.78C881.096 2221.62 882.993 2219.25 883.766 2217.59L884.087 2216.9C892.519 2216.9 892.694 2216.85 892.46 2217.17C892.344 2217.31 891.556 2218.28 890.71 2219.28C888.58 2221.81 888.288 2222.54 889.047 2223.35C889.762 2224.13 889.966 2223.98 892.256 2221.12C894.62 2218.16 895.261 2217.28 895.261 2216.99C895.261 2216.82 895.509 2216.74 896.458 2216.69C898.106 2216.57 904.306 2216.47 904.306 2216.55C904.306 2216.79 897.887 2223.21 900.571 2223.72C901.315 2223.86 905.269 2219.22 906.217 2217.09L906.48 2216.5L910.447 2216.32C915.159 2216.12 914.853 2215.96 913.175 2217.74C910.914 2220.11 910.156 2222.27 911.585 2222.27C912.183 2222.27 915.145 2218.82 916.341 2216.7C916.75 2215.97 917.537 2215.74 919.55 2215.72C922.278 2215.69 925.969 2213.14 927.472 2208.28C927.836 2207.06 928.128 2205.69 928.318 2204.17Z" fill="black"/>
<path d="M846.377 2185.22C848.915 2184.84 850.301 2184.74 853.087 2184.34C856.516 2183.85 858.12 2183.75 864.174 2183.63C867.427 2183.57 870.768 2183.44 871.614 2183.35C879.681 2182.52 896.764 2182.45 906.407 2183.19C907.369 2183.26 909.149 2183.4 910.345 2183.47C922.074 2184.27 924.102 2184.88 925.415 2188.02C925.969 2189.35 926.421 2189.92 927.267 2190.31C928.114 2190.72 928.041 2190.79 930.025 2187.99C932.227 2184.88 932.242 2184.85 931.965 2184.26C931.44 2183.15 930.652 2183.66 928.172 2186.76C926.888 2188.38 926.83 2188.43 926.699 2187.93C926.436 2186.93 924.379 2184.5 923.183 2183.8C920.294 2182.11 913.409 2181.86 907.209 2181.32C901.432 2180.83 884.16 2180.52 879.346 2180.81C878.266 2180.89 870.52 2181.32 869.645 2181.4C868.755 2181.47 865.516 2181.6 862.424 2181.69C852.212 2181.95 852.198 2182.55 848.857 2182.93C846.917 2183.15 844.087 2183.72 840.396 2184.1C837.872 2184.36 837.799 2184.39 838.12 2185.01C838.572 2185.9 841.359 2185.98 846.377 2185.22Z" fill="black"/>
<path d="M923.722 2216.52C922.38 2218.07 922.118 2218.83 922.687 2219.54C923.489 2220.58 924.437 2219.73 928.959 2213.94C931.95 2210.11 931.892 2210.24 931.221 2209.51C930.418 2208.66 930.374 2208.84 923.722 2216.52Z" fill="black"/>
<path fill-rule="evenodd" clip-rule="evenodd" d="M1060.66 2174.22C1043.67 2175.2 1036.63 2176.8 1028.24 2181.64C1026.37 2182.72 1026.77 2182.7 1024.55 2181.84C1022.01 2180.85 1021.65 2181.76 1024.07 2183.07C1024.98 2183.57 1024.98 2183.57 1023.02 2184.76C1004.69 2195.75 997.186 2213.59 1022.07 2225.22C1041.93 2234.5 1082.72 2231.05 1100.7 2218.57L1101.93 2217.72C1102.23 2217.81 1104.11 2218.69 1104.31 2218.75C1105.16 2219.01 1104.78 2217.99 1104.45 2217.6C1104.37 2217.5 1103.46 2216.54 1103.46 2216.54C1103.46 2216.54 1103.93 2216.05 1105.38 2214.68C1120.44 2200.41 1116.81 2187.06 1095.6 2178.59L1093.93 2177.93L1094.59 2177.4C1096.05 2176.19 1094.57 2175.49 1092.48 2176.43L1091.09 2177.04L1088.93 2176.45C1081.89 2174.48 1071.07 2173.63 1060.66 2174.22ZM1073.83 2177.22C1078.85 2177.91 1085.66 2179.52 1085.66 2180C1085.66 2180.1 1085.46 2180.28 1085.22 2180.39C1084.98 2180.51 1059.88 2196.05 1059.88 2196.05C1037.36 2186.51 1030.64 2184.4 1030.82 2184.1C1031.45 2183.09 1041.71 2179.52 1047.58 2178.29C1055.12 2176.7 1066.73 2176.23 1073.83 2177.22ZM1094.75 2179.96C1112.32 2187.18 1115.9 2196.82 1105.78 2209.84C1104.29 2211.76 1103.61 2212.38 1104.61 2210.91C1113.04 2198.51 1108.53 2187.2 1092.68 2180.97C1090.66 2180.18 1090.62 2180.12 1091.51 2179.5C1092.44 2178.89 1091.91 2178.81 1094.75 2179.96ZM1091.73 2182.06C1099.8 2185.43 1104.92 2190.33 1106.01 2195.67C1108.06 2205.75 1098.14 2214.32 1098.12 2214.34C1098.12 2214.34 1068.3 2199.84 1064.88 2198.31C1063.3 2197.6 1063.2 2197.78 1066.37 2195.83C1067.88 2194.92 1077.58 2188.73 1078.71 2187.99C1079.86 2187.26 1082.62 2185.41 1084.86 2183.91C1089.53 2180.75 1088.97 2180.91 1091.73 2182.06ZM1036.97 2188.49C1044.9 2191.66 1057.64 2196.92 1057.84 2197.12C1057.98 2197.26 1058.42 2196.98 1051.53 2201.25C1038.95 2209.01 1039.94 2208.77 1031.09 2213.81C1028 2215.57 1023.85 2218.23 1022.13 2219.54L1021.19 2220.26L1020.02 2219.28C1011.79 2212.42 1013.06 2197.04 1022.5 2189.42C1025.28 2187.18 1028.34 2185.35 1028.34 2185.35C1028.34 2185.35 1031.97 2186.49 1036.97 2188.49ZM1016.73 2192.56C1009.47 2202.08 1010.1 2213.57 1018.24 2220.16C1019.37 2221.07 1019.71 2221.45 1019.55 2221.6C1018.4 2222.76 1011.97 2217.08 1010.48 2213.61C1007.56 2206.78 1009.27 2199.78 1015.48 2193.33C1017.21 2191.55 1017.8 2191.17 1016.73 2192.56ZM1063.79 2199.7C1066.21 2200.79 1089.41 2211.96 1091.93 2213.15C1097.38 2215.75 1097.03 2215.47 1095.86 2216.33C1090.16 2220.47 1083.85 2222.87 1073.28 2224.9C1058.08 2227.81 1033.02 2226.66 1025.12 2222.7C1023.38 2221.82 1023.36 2221.86 1025.4 2220.73C1034.31 2215.75 1041.31 2211.6 1046.09 2208.49C1047.19 2207.78 1060.94 2199.24 1061.15 2199.08C1061.67 2198.73 1061.59 2198.71 1063.79 2199.7ZM1023.54 2223.23C1027.5 2225.16 1031.19 2226.35 1042.01 2227.62C1043.93 2227.83 1051.33 2228.59 1064.29 2227.46C1065.12 2227.38 1066.05 2227.62 1066.11 2227.87C1066.27 2228.43 1064.33 2228.59 1064.33 2228.59C1054.98 2229.84 1042.07 2229.18 1034.88 2227.76C1029.19 2226.62 1018.97 2222.81 1021.61 2222.81C1021.71 2222.83 1022.64 2222.79 1023.54 2223.23Z" fill="black"/>
<path fill-rule="evenodd" clip-rule="evenodd" d="M1212.4 2184.88C1200.08 2190.07 1193.79 2195.57 1191.96 2202.79C1191.6 2204.28 1191.15 2205.18 1190.25 2206.3C1184.86 2213.07 1185.79 2220.45 1192.58 2224.97C1199.74 2229.71 1219.87 2230 1241.43 2225.64C1244.52 2225.03 1249.52 2224.13 1252.52 2223.68C1289.95 2218.03 1302.44 2201.5 1291.1 2190.1C1284.19 2183.14 1274 2180.16 1257.02 2180.05C1240.84 2179.96 1219.37 2186.67 1203.9 2195.91C1199.85 2198.33 1199.38 2197.37 1200.56 2196.14C1204.71 2191.76 1215.91 2186.06 1227.62 2182.6C1238.06 2179.51 1242.89 2178.25 1250.73 2178.19C1253.79 2178.17 1255.56 2176.06 1250.84 2175.81C1245.84 2175.58 1225.8 2179.23 1212.4 2184.88ZM1287.68 2205.91C1282.71 2212.14 1271.25 2216.77 1252.69 2220C1190.67 2230.78 1195.56 2207.45 1195.56 2207.45C1195.61 2207.42 1215.13 2188.13 1253.53 2183.45C1272.43 2181.11 1302.56 2187.24 1287.68 2205.91ZM1213.61 2224.83C1220.01 2225.7 1212.49 2225.87 1203 2225.08C1185.31 2223.62 1190.42 2213.43 1192.05 2211.75C1197.33 2219.35 1204.65 2223.62 1213.61 2224.83Z" fill="black"/>
<path fill-rule="evenodd" clip-rule="evenodd" d="M1384.42 2162.44C1378.45 2163.31 1380.75 2165.12 1384.66 2165.19C1393.4 2165.33 1394.72 2163.83 1424.09 2164.32C1454.13 2164.82 1466.26 2166.7 1468.57 2171.17C1469.74 2173.42 1470.31 2184.22 1469.86 2196.16C1469.27 2212.44 1468.97 2220.65 1468.59 2225.14C1468.03 2231.72 1464.99 2236.9 1455.49 2237.3C1445.82 2237.7 1387.67 2240.02 1383.34 2239.74C1378.61 2239.41 1374.43 2238.73 1372.57 2235.06C1371.18 2232.31 1371.11 2231.61 1370.92 2212.98C1370.5 2174.6 1370.99 2170.6 1376.57 2166.53C1381.93 2162.61 1374 2162.63 1370.24 2169.94C1367.82 2174.62 1367.02 2180.2 1367.46 2209.71C1367.63 2220.6 1367.11 2227.18 1368.33 2231.91C1369.91 2237.93 1374.31 2239.04 1375.7 2240.94C1379.86 2246.61 1411.47 2241.79 1446.69 2241.62C1466.38 2241.53 1472.87 2242.16 1474.19 2219.73C1474.28 2218.32 1475.72 2198.21 1475.72 2185.86C1475.72 2177.7 1474.56 2173.38 1472.33 2172.95C1471.62 2172.81 1471.44 2172.62 1470.94 2171.57C1467.86 2164.93 1462.12 2163 1440.44 2161.38C1438.25 2161.15 1402.55 2159.81 1384.42 2162.44ZM1428.26 2168.25C1426.38 2168.7 1424.38 2171.21 1424.89 2172.48C1425.62 2174.25 1429.79 2175.12 1431.46 2173.85C1435.48 2170.88 1433.29 2167.07 1428.26 2168.25ZM1414.03 2168.51C1411.42 2169.14 1409.94 2171.96 1411.51 2173.28C1415.32 2176.48 1422.82 2172.93 1419.13 2169.68C1417.93 2168.63 1415.65 2168.11 1414.03 2168.51ZM1440.32 2168.77C1437.24 2170.41 1436.86 2172.58 1439.43 2174.08C1441.99 2175.59 1445.8 2174.34 1446.79 2171.71C1447.57 2169.64 1442.77 2167.45 1440.32 2168.77ZM1397.47 2169.07C1395.45 2169.94 1394.11 2171.85 1394.7 2172.98C1396.32 2176.13 1403.28 2175.3 1403.28 2171.97C1403.28 2169.85 1399.73 2168.08 1397.47 2169.07ZM1430.99 2169.5C1431.67 2170.18 1430.33 2171.96 1428.73 2172.53C1427.74 2172.88 1427.62 2172.74 1427.98 2171.73C1428.45 2170.22 1430.33 2168.84 1430.99 2169.5ZM1382.75 2169.78C1377.93 2171.49 1378.52 2176.25 1383.55 2176.27C1385.62 2176.27 1388.47 2173.92 1388.47 2172.18C1388.47 2170.32 1385.13 2168.93 1382.75 2169.78ZM1417.16 2169.92C1417.98 2170.74 1416.99 2172.2 1415.28 2172.72C1413.75 2173.19 1413.37 2172.39 1414.41 2170.84C1415.3 2169.5 1416.38 2169.14 1417.16 2169.92ZM1400.55 2170.41C1400.74 2171.31 1400.3 2172.08 1399.21 2172.74C1397.14 2174.01 1396.77 2172.11 1398.74 2170.39C1399.78 2169.45 1400.34 2169.45 1400.55 2170.41ZM1443.68 2170.2C1443.85 2171.05 1441.54 2173.26 1440.91 2172.86C1439.99 2172.29 1441.8 2169.59 1443.03 2169.73C1443.36 2169.75 1443.64 2169.97 1443.68 2170.2ZM1452.06 2170.13C1449.75 2171.17 1448.76 2173.09 1449.92 2174.27C1452.76 2177.12 1458.76 2176.27 1458.76 2173.02C1458.78 2170.46 1454.93 2168.81 1452.06 2170.13ZM1386.3 2171.42C1387.2 2173.23 1382.87 2176.03 1381.79 2174.34C1381.25 2173.47 1382.47 2171.54 1384.07 2170.84C1385.2 2170.34 1385.86 2170.51 1386.3 2171.42ZM1455.44 2171.14C1455.91 2171.61 1455.77 2172.84 1455.18 2173.4C1453.14 2175.33 1451.63 2173.85 1453.56 2171.82C1454.5 2170.81 1454.95 2170.65 1455.44 2171.14Z" fill="black"/>
<path fill-rule="evenodd" clip-rule="evenodd" d="M208.339 2367.74C196.916 2372.3 188.395 2367.65 182.255 2364.99C176.388 2362.46 156.431 2350.2 135.746 2356.32C134.029 2356.82 129.189 2358.61 127.888 2359.22C126.548 2359.84 126.496 2359.84 126.717 2359.36C126.835 2359.1 127.043 2358.76 127.667 2358.64C128.825 2358.41 130.451 2357.76 130.959 2357.08C132.468 2355.09 128.981 2352.49 125.924 2353.35C122.502 2354.3 122.06 2358.11 125.286 2358.83C125.768 2358.93 104.393 2409.97 104.719 2411.63C104.81 2412.13 105.434 2412.6 105.733 2412.41C106.176 2412.14 109.168 2404.23 110.274 2401.62C110.703 2402.12 111.561 2401.67 114.346 2400.91C120.408 2399.27 125.43 2398.78 134.055 2398.99C148.755 2399.33 158.539 2403.01 171.262 2407.81C179.432 2410.83 186.457 2410.6 193.248 2407.11C195.069 2406.19 194.796 2406.82 195.407 2405.14C195.407 2405.13 208.274 2373.67 208.274 2373.66C210.85 2367.4 210.85 2366.74 208.339 2367.74ZM112.082 2396.74C124.714 2362.61 126.34 2360.97 126.392 2360.97C126.405 2360.97 126.861 2361.48 127.381 2362.12C131.934 2367.5 134.926 2378.2 134.744 2378.34C121.267 2387.86 114.528 2395.11 111.887 2398.75C110.781 2400.25 110.781 2400.24 112.082 2396.74ZM207.766 2370.29C204.462 2376.83 194.965 2401.15 194.731 2401.68C193.326 2404.84 194.119 2404.59 192.532 2405.37C185.442 2408.94 179.041 2409.13 170.494 2406.03C153.66 2399.78 149.237 2399.21 141.717 2398.12C133.873 2396.97 121.839 2397.22 113.955 2399.91C112.784 2400.31 112.784 2400.31 113.383 2399.52C118.652 2392.52 135.044 2379.13 135.668 2379.25C136.371 2379.39 136.071 2377.92 134.575 2373.74C131.765 2365.92 130.412 2364.29 127.238 2360.61C127.251 2360.61 134.224 2357.57 139.545 2356.67C147.702 2355.29 158.617 2356.04 167.801 2359.53C183.218 2365.37 192.259 2374.23 206.543 2369.85C208.3 2369.33 208.261 2369.31 207.766 2370.29Z" fill="black"/>
<path fill-rule="evenodd" clip-rule="evenodd" d="M385.124 2395.61C385.07 2394.89 392.797 2389.3 391.497 2387.85C390.938 2387.24 389.529 2387 385.557 2386.88C374.346 2386.59 380.881 2386.24 349.719 2385.61C349.719 2385.61 356.381 2381.59 357.392 2380.94C358.53 2380.2 360.191 2379.56 360.985 2379.56C361.617 2379.56 362.664 2379.08 362.971 2377.83C363.874 2374.26 364.416 2363.82 363.495 2362.59C361.726 2360.21 297.326 2359.65 286.294 2361.2C284.037 2361.51 284.128 2361.96 286.728 2363.64C291.331 2366.62 294.112 2368.39 295.231 2369.02C296.676 2369.87 296.676 2369.83 295.592 2370.36C294.058 2371.11 286.818 2375.84 285.157 2377.18C281.69 2380.03 286.06 2379.47 288.244 2379.29C293.426 2378.88 292.938 2379.18 328.253 2378.77C323.306 2381.82 321.537 2382.99 319.262 2384.11C316.138 2385.65 313.466 2387.27 312.22 2387.53C311.733 2387.62 311.336 2387.78 311.011 2387.92C310.451 2388.19 310.09 2388.77 310.108 2389.39L310.307 2397.8L309.512 2400.62C308.519 2404.12 309.097 2405.82 311.047 2405.07C311.408 2404.95 311.607 2404.97 311.859 2405.17C312.744 2405.82 315.633 2404.62 333.146 2404.14C336.829 2404.03 342.425 2403.87 345.603 2403.76C359.83 2403.29 389.999 2403.59 391.425 2404.21C392.346 2404.61 392.509 2403.58 391.768 2402.53C390.089 2400.13 385.142 2395.87 385.124 2395.61ZM351.597 2383.28C350.297 2384.06 346.397 2385 343.057 2385.58C341.234 2385.88 334.969 2386.15 335.33 2385.81C335.475 2385.65 349.683 2382.81 351.019 2382.47C352.211 2382.16 352.518 2382.76 351.597 2383.28ZM357.23 2379.56C357.068 2379.85 332.514 2385.52 332.496 2385.52C330.6 2385.99 329.914 2386.06 327.007 2386.12C322.836 2386.19 322.836 2386.19 332.098 2384.17C344.267 2381.51 340.476 2382.16 347.029 2380.67C350.604 2379.85 352.067 2379.18 352.536 2379.31C353.204 2379.42 357.411 2379.29 357.23 2379.56ZM290.104 2377.43C288.154 2377.7 288.19 2377.65 291.006 2375.9C298.066 2371.55 299.293 2370.21 297.38 2368.98C297.055 2368.77 293.083 2365.91 289.291 2363.57C288.37 2363.01 287.576 2362.47 287.522 2362.39C286.89 2361.31 361.563 2363.57 362.069 2364.02C362.087 2364.04 361.256 2377.81 361.238 2377.81C361.22 2377.81 332.441 2376.86 332.423 2376.86C326.863 2376.55 293.01 2377.02 290.104 2377.43ZM327.603 2380.43C328.126 2380.43 332.532 2379.11 334.265 2378.55C334.861 2378.37 337.117 2378.63 336.72 2378.84C335.492 2379.51 332.134 2380.36 329.697 2381.03C327.26 2381.69 325.256 2382.25 325.22 2382.22C325.075 2382.06 327.169 2380.43 327.603 2380.43ZM320.634 2385.2C322.529 2384.1 322.042 2383.9 323.089 2383.9C323.829 2383.9 326.104 2383.36 333.759 2381.32C342.516 2379 341.451 2379.26 346.759 2379.26C334.084 2382.36 325.707 2384.26 322.042 2385.32C319.153 2386.14 318.882 2386.23 320.634 2385.2ZM312.906 2404.32C310.776 2404.89 310.559 2403.96 311.968 2400.42C314.297 2394.53 312.329 2389.4 312.888 2388.92C314.116 2387.69 350.532 2386.89 369.056 2387.69C371.493 2387.8 388.934 2388.81 388.934 2388.81C385.233 2391.55 383.517 2393.7 382.994 2393.92C381.892 2394.37 383.066 2396.12 386.839 2399.77L389.15 2402.01C372.703 2401.48 322.963 2401.59 312.906 2404.32Z" fill="black"/>
<path d="M520.304 2376.31C520.292 2375.68 519.96 2375.29 519.469 2375.29C519.272 2375.29 519.125 2375.33 519.162 2375.39C519.186 2375.44 519.26 2375.62 519.346 2375.78C519.579 2376.3 519.911 2380.62 519.85 2382.41C519.764 2385.27 518.609 2387 516.078 2388.04C513.301 2389.18 512.281 2389.38 510.266 2389.16C503.447 2388.41 499.024 2390.92 502.071 2393.79C503.496 2395.13 507.846 2394.79 507.846 2393.61C507.846 2392.99 507.305 2393.39 505.474 2393.31C498.864 2393.07 502.611 2390.41 509.541 2390.4C515.525 2390.39 518.793 2388.95 520.439 2385.61C521.275 2383.93 520.341 2377.68 520.304 2376.31Z" fill="black"/>
<path d="M570.606 2390.52C570.593 2390.51 567.559 2382.88 565.003 2380.92C564.622 2380.62 564.192 2380.3 564.057 2380.19C563.811 2380.01 563.823 2379.98 564.462 2379.15C566.084 2377.02 567.178 2373.1 566.674 2371.26C566.44 2370.41 566.17 2370.36 564.597 2370.9C561.378 2372 559.793 2371.93 552.962 2370.43C543.919 2368.46 539.361 2368.22 532.75 2369.4C530.109 2369.87 524.297 2371.47 521.41 2372.52C520.992 2372.67 520.599 2372.81 520.304 2372.92C520.021 2373.02 519.726 2372.81 519.726 2372.5C519.714 2368.74 517.724 2366.05 514.566 2365.53C509.049 2364.62 500.965 2365.91 492.155 2369.11C483.21 2372.35 475.728 2373.59 475.445 2371.87C475.261 2370.79 475.224 2370.85 476.883 2370.15C481.22 2368.33 481.417 2367.13 477.374 2367.13H475.384C475.384 2366.42 475.298 2366.4 476.047 2366.1C479.893 2364.5 477.362 2359.76 473.43 2361.17C471.329 2361.92 470.838 2363.78 472.337 2365.31C472.546 2365.53 472.693 2365.73 472.668 2365.75C472.644 2365.78 472.201 2365.95 471.698 2366.15C469.793 2366.86 468.749 2367.58 468.749 2368.17C468.749 2369.8 470.739 2369.3 471.255 2369.22C472.349 2369.05 473.75 2368.8 474.094 2368.71C474.647 2368.58 474.511 2369.3 473.934 2369.57C471.157 2370.9 471.083 2372.28 473.75 2373.14L474.389 2373.35C474.094 2384.05 474.081 2392.38 474.032 2392.45C474.02 2392.46 473.565 2392.8 473 2393.18C466.795 2397.49 465.161 2400.14 467.471 2402.22C468.454 2403.11 470.285 2403.26 472.595 2402.65C474.032 2402.27 473.885 2402.18 473.971 2403.42C474.069 2404.78 475.359 2405.77 475.359 2403.18V2401.73L476.195 2401.34C478.443 2400.28 481.564 2399.48 482.473 2399.73C483.37 2399.97 483.468 2400.5 482.707 2400.87C481.994 2401.21 482.313 2402.07 483.149 2402.07C484.083 2402.07 484.378 2400.93 483.69 2399.91C482.608 2398.31 480.434 2398.26 476.698 2399.74C476.01 2400.01 475.433 2400.23 475.408 2400.23C475.347 2400.23 475.273 2392.49 475.715 2392.69C476.981 2393.25 482.473 2392.24 486.97 2390.61C489.268 2389.77 496.48 2386.73 498.065 2385.92C498.913 2385.49 498.851 2385.33 498.9 2388.28C498.962 2392.23 499.146 2393.42 499.883 2394.5C502.722 2398.67 511.249 2398.01 521.643 2392.81C537.628 2384.81 556.636 2385.98 568.812 2390.97C570.446 2391.62 571.085 2391.46 570.606 2390.52ZM475.482 2368.57C475.482 2368.32 476.809 2368.16 478.124 2367.97C479.426 2367.76 478.652 2368.31 478.185 2368.47C476.772 2368.94 475.863 2369.39 475.543 2369.39C475.384 2369.38 475.482 2368.65 475.482 2368.57ZM473.983 2394.15C473.885 2394.41 473.909 2400.12 473.909 2400.93L472.951 2401.25C466.832 2403.29 465.505 2400.87 470.432 2396.67C473.062 2394.44 474.18 2393.64 473.983 2394.15ZM474.425 2367.14C474.278 2367.5 473.872 2367.42 473.135 2367.61C471.956 2367.89 470.469 2367.97 471.55 2367.44C472.521 2366.97 474.475 2366.15 474.475 2366.39C474.475 2366.6 474.499 2366.95 474.425 2367.14ZM475.617 2389.6C475.359 2389.76 475.494 2377.89 475.494 2376.39C475.507 2373.95 475.58 2373.85 476.342 2375.5C477.214 2377.39 477.448 2380.98 476.92 2384.25C476.662 2385.78 475.765 2389.5 475.617 2389.6ZM567.153 2388.72C556.857 2384.72 538.869 2382.72 521.889 2390.76C511.937 2395.46 508.14 2396.25 501.923 2394.92C500.387 2394.59 499.896 2393.26 499.711 2388.98C499.65 2387.55 499.564 2386.14 499.515 2385.83L499.429 2385.26L500.399 2384.86C507.059 2382.08 518.154 2380.84 518.129 2382.88C518.129 2383.96 517.011 2384.69 515.168 2385.89C513.89 2386.74 513.436 2386.6 513.755 2387.05C514.689 2388.37 519.1 2385.72 519.112 2383.58C519.124 2378.84 508.484 2379.15 497.291 2384.22C494.6 2385.44 488.555 2388 485.999 2388.95C483.69 2389.81 481.011 2390.51 478.247 2391C476.551 2391.3 476.686 2391.38 477.055 2390.27C479.205 2383.67 479.119 2377.3 476.834 2374.46C476.195 2373.67 476.109 2373.73 477.792 2373.78C480.95 2373.89 486.491 2372.61 493.654 2370.13C501.161 2367.52 510.118 2366.2 515.254 2366.92C517.478 2367.24 517.883 2367.87 518.326 2371.65C518.719 2375.04 518.424 2375.02 527.111 2372.27C535.195 2369.71 542.715 2369.53 552.544 2371.68C559.928 2373.29 561.673 2373.4 564.511 2372.45C565.814 2372.02 565.765 2371.98 565.593 2373.06C565.236 2375.18 564.229 2377.48 563 2378.94C561.931 2380.22 561.919 2380.25 562.472 2380.61C563.873 2381.51 565.888 2384.23 567.436 2387.32C568.443 2389.36 568.468 2389.23 567.153 2388.72Z" fill="black"/>
<path fill-rule="evenodd" clip-rule="evenodd" d="M648.096 2362.57C647.021 2363.14 645.88 2363.58 645.573 2363.58C645.222 2363.58 645.025 2363.71 645.025 2363.9C645.047 2366.03 646.341 2399.9 647.109 2401.11C647.767 2402.18 649.763 2402.9 650.048 2402.18C650.114 2402 651.869 2401.32 654.303 2400.53C666.214 2396.72 667.069 2397.31 683.674 2403.5C696.593 2408.3 706.574 2406.08 718.287 2395.82C732.917 2383.01 743.819 2378.71 751.013 2382.88C754.391 2384.85 754.084 2381.89 750.662 2379.7C739.344 2372.44 729.715 2372.26 715.479 2379.06C708.46 2382.42 701.967 2386.34 687.162 2374.45C678.87 2367.81 676.084 2365.88 671.127 2363.44C662.616 2359.28 656.563 2358.2 648.096 2362.57ZM662.441 2363.38C666.455 2364.15 672.202 2366.65 676.984 2369.69C679.396 2371.25 680.888 2372.35 687.117 2377.26C698.699 2386.39 706.31 2387.66 716.313 2382.15C722.476 2378.78 731.404 2374.81 739.936 2377.94C740.221 2378.05 739.607 2378.34 737.852 2378.91C731.623 2380.95 725.744 2384.81 716.729 2392.75C706.771 2401.52 698.918 2406 678.782 2398.45C670.074 2395.2 662.068 2391.96 650.86 2398.82C649.675 2399.55 649.982 2402.2 648.14 2365.77C653.645 2363.88 657.264 2362.39 662.441 2363.38Z" fill="black"/>
<path fill-rule="evenodd" clip-rule="evenodd" d="M839.598 2366.66C830.592 2367 825.769 2368.14 826.844 2369.65C827.872 2371.11 842.044 2382.4 842.524 2382.95C842.752 2383.23 842.706 2383.36 842.295 2383.64C841.701 2384.03 838.112 2387.66 830.158 2395.34C825.038 2400.28 824.992 2400.35 826.386 2401.33C827.666 2402.22 834.706 2402.15 844.855 2401.17C876.421 2398.13 915.392 2397.81 926.044 2397.6C931.049 2397.51 931.758 2397.54 932.261 2397.88C932.924 2398.31 933.975 2397.63 933.975 2396.76C933.975 2396.1 922.204 2384.42 919.529 2382.45C918.318 2381.56 917.244 2380.71 917.175 2380.62C917.107 2380.51 919.347 2378.08 922.135 2375.2C928.124 2369.06 934.318 2363.66 925.747 2363.73C878.181 2363.98 845.609 2366.4 839.598 2366.66ZM926.912 2366.59C926.912 2367.02 918.318 2375.59 915.164 2379.16C914.752 2379.62 914.638 2380.28 914.912 2380.85C915.804 2382.84 923.849 2389.47 929.289 2395.02C886.158 2395.02 883.346 2395.41 834.066 2399.71C828.832 2400.16 828.924 2400.53 832.878 2396.37C837.404 2391.62 839.255 2389.58 842.638 2386.47C844.695 2384.58 845.335 2383.43 843.278 2380.9C840.489 2377.44 830.844 2369.95 831.415 2369.76C833.769 2369.06 874.021 2367.89 883.826 2367.36C886.684 2367.2 926.912 2366.34 926.912 2366.59Z" fill="black"/>
<path d="M1050.4 2412.55C1048.04 2411.46 1047.37 2411.46 1047 2412.45C1046.48 2413.82 1051.53 2417.32 1054.13 2417.32C1056.73 2417.32 1054.46 2414.39 1050.4 2412.55Z" fill="black"/>
<path d="M1035.66 2400.17C1034.52 2400.59 1035.04 2401.63 1037.55 2403.9C1041.66 2407.63 1044.02 2407.96 1042.22 2404.56C1040.76 2401.87 1037.26 2399.51 1035.66 2400.17Z" fill="black"/>
<path d="M1031.12 2389.11C1030.36 2391.9 1031.4 2394.64 1033.2 2394.64C1034.85 2394.64 1035.37 2390.39 1034 2388.64C1033.2 2387.6 1031.4 2387.93 1031.12 2389.11Z" fill="black"/>
<path d="M1031.92 2351.36C1033.34 2347.67 1031.21 2341.48 1029.23 2343.47C1028.66 2344.04 1028.9 2350.41 1029.56 2351.31C1030.32 2352.3 1031.55 2352.35 1031.92 2351.36Z" fill="black"/>
<path d="M1032.96 2380.75C1034 2380.37 1033.86 2375.64 1032.77 2374.65C1030.98 2373 1030.32 2373.61 1030.32 2376.92C1030.32 2380.09 1031.21 2381.36 1032.96 2380.75Z" fill="black"/>
<path d="M1032.35 2365.49C1032.92 2362.46 1031.78 2358.73 1030.32 2358.73C1029.51 2358.73 1029.42 2359.06 1029.42 2361.71C1029.37 2365.86 1031.69 2368.84 1032.35 2365.49Z" fill="black"/>
<path d="M1086.87 2360.48C1086.26 2361.09 1086.54 2365.3 1087.3 2366.01C1091.31 2369.93 1089.76 2357.55 1086.87 2360.48Z" fill="black"/>
<path d="M1090.32 2388.73C1090.32 2387.03 1088.1 2385.99 1087.11 2387.22C1086.35 2388.12 1086.68 2390.95 1085.69 2392.89C1084.98 2394.31 1085.22 2394.83 1086.83 2395.3C1088.05 2395.63 1090.32 2394.4 1090.32 2388.73Z" fill="black"/>
<path d="M1088.67 2352.59C1090.28 2352.59 1090.51 2352.02 1090.13 2348.52C1089.66 2343.94 1087.11 2342.29 1086.12 2345.88C1084.98 2349.85 1086.02 2352.59 1088.67 2352.59Z" fill="black"/>
<path d="M1101.85 2336.57C1101.47 2330.52 1095.66 2328.77 1089.66 2328.68C1073.79 2328.4 1077.94 2331.09 1022.47 2331.99C1019.5 2332.03 1018.46 2331.8 1018.03 2334.96C1017.89 2336.1 1019.17 2378.2 1019.59 2390.43C1019.87 2398.94 1020.58 2397.52 1024.46 2402.34C1028.57 2407.44 1037.03 2418.07 1051.86 2433.29C1061.45 2443.12 1069.53 2434.33 1100.81 2397.9C1101.61 2396.95 1102.09 2395.82 1102.13 2394.59C1102.84 2381.83 1103.08 2355.8 1101.85 2336.57V2336.57ZM1098.35 2393.93C1098.31 2393.98 1064.24 2433.19 1061.22 2433.19C1060.13 2433.19 1047.42 2422.23 1040 2413.77C1034.19 2407.16 1029.61 2402.62 1026.06 2399.08C1025.17 2398.18 1024.65 2397 1024.6 2395.73C1024.27 2385.85 1022.8 2342.1 1022.8 2342C1022.05 2336.24 1021.76 2336.33 1041.47 2336.43C1070.05 2336.62 1077 2333.73 1097.69 2333.92C1097.65 2373.09 1099.82 2393.08 1098.35 2393.93Z" fill="black"/>
<path d="M1080.21 2400.36C1078.94 2401.4 1076.62 2404.66 1076.62 2405.46C1076.62 2407.16 1080.97 2404.94 1082.53 2402.48C1084.42 2399.41 1083 2398.09 1080.21 2400.36Z" fill="black"/>
<path d="M1066.27 2414.48C1063.67 2417.6 1063.58 2417.79 1064.43 2418.64C1065.8 2420.01 1072.23 2414.91 1071.8 2412.78C1071.42 2410.61 1068.87 2411.36 1066.27 2414.48Z" fill="black"/>
<path d="M1088.05 2381.55C1089.61 2382.12 1090.51 2377.91 1089.33 2375.69C1088.62 2374.42 1086.68 2374.51 1086.35 2375.88C1085.64 2378.72 1086.31 2380.89 1088.05 2381.55Z" fill="black"/>
<path fill-rule="evenodd" clip-rule="evenodd" d="M1292.66 2366.38C1279.97 2379.3 1218.77 2386.77 1189.64 2373.85C1186.95 2372.65 1186.77 2372.61 1186.77 2373.19C1186.77 2373.69 1188.71 2375.06 1190.7 2375.92L1192.11 2376.55C1192.5 2391.2 1192.65 2395.76 1193.6 2395.76C1194.07 2395.76 1194.07 2395.76 1195.65 2393.58C1198.38 2389.82 1200.57 2387.02 1202.83 2383.19C1204.98 2379.53 1204.45 2379.78 1208.5 2380.5L1211.09 2380.96C1212.06 2387.56 1215.27 2399.84 1215.27 2399.86C1215.77 2401.76 1217.2 2399.44 1228.75 2382.2C1230.76 2382.11 1232.1 2382.3 1232.1 2382.3C1232.1 2382.32 1235.37 2388.49 1237.01 2393.09C1237.82 2395.34 1239.89 2399.9 1240.16 2400C1241.29 2400.44 1244.26 2395.65 1246.74 2389.34C1247.82 2386.63 1250.05 2381.49 1250.26 2381.31C1250.32 2381.22 1251.77 2381.06 1254.54 2380.71C1256.1 2383.09 1257.55 2385.26 1259.06 2387.79C1260.59 2390.35 1264.09 2395.3 1265.06 2397.06C1267.17 2400.85 1269.39 2395.92 1272 2381.7C1272.87 2376.9 1272.49 2377.5 1275.1 2376.81L1277.27 2376.24C1291.12 2389.26 1286.3 2384.16 1290.86 2388.55C1296.57 2394.04 1293.63 2381.33 1292.74 2371.95L1292.47 2369.16C1293.65 2368 1294.4 2367.27 1294.81 2366.79C1295.66 2365.76 1294.81 2364.19 1292.66 2366.38ZM1290.69 2370.58C1290.69 2371.74 1292.84 2387.68 1292.59 2387.68C1292.2 2387.68 1289.49 2384.1 1278.7 2375.72C1288.5 2372.38 1290.69 2369.98 1290.69 2370.58ZM1203.04 2379.65C1203.2 2379.86 1200.33 2383.42 1196.6 2389.34C1194.3 2392.98 1194.47 2392.76 1194.32 2392.63C1194.26 2392.57 1194.14 2389.4 1194.01 2385.59C1193.76 2377.27 1193.56 2377.13 1193.64 2377.13C1193.66 2377.13 1203 2379.61 1203.04 2379.65ZM1271.44 2377.87C1271.44 2377.89 1266.43 2396.3 1266.41 2396.32C1266.39 2396.34 1256.26 2380.5 1256.28 2380.5C1256.37 2380.48 1258.13 2380.21 1260.18 2379.92C1271.04 2378.33 1271.44 2377.42 1271.44 2377.87ZM1226.87 2382.2C1224.69 2385.39 1220.7 2391.2 1218.58 2394.52C1216.35 2398.06 1216.39 2398.03 1215.83 2395.2C1213.95 2385.57 1213.91 2384.68 1212.95 2381.66C1212.68 2380.81 1213.31 2381.56 1226.87 2382.2ZM1239.97 2395.86C1239.97 2395.84 1233.76 2382.2 1233.76 2382.18C1233.76 2382.16 1248.89 2381.47 1248.91 2381.47C1239.7 2395.41 1241.5 2399.26 1239.97 2395.86Z" fill="black"/>
<path fill-rule="evenodd" clip-rule="evenodd" d="M1407.44 2360.07C1397.79 2360.69 1385.53 2363.09 1378.49 2365.71C1374.72 2367.11 1374.68 2367.11 1377.13 2365.46C1378.78 2364.33 1379.57 2363.76 1379.83 2363.33C1380.08 2362.89 1379.93 2360.86 1375.17 2362.64C1374.37 2362.93 1373.79 2363.35 1373.42 2363.37C1373.04 2363.39 1372.95 2363.03 1373.08 2362.78C1373.22 2362.52 1373.6 2362.36 1374.35 2362.01C1376.14 2361.16 1375.86 2360.67 1373.95 2361.32C1372.77 2361.71 1372.65 2361.69 1372.65 2361.14C1372.65 2360.53 1371.96 2360.31 1371.17 2360.69C1370.36 2361.06 1370.38 2360.98 1370.9 2361.81L1371.29 2362.5L1370.24 2363.27C1365.67 2366.6 1366.66 2367.57 1372.18 2365.18C1373.04 2364.81 1372.81 2366.17 1371.84 2367.07C1370.7 2368.16 1370.68 2368.4 1371.74 2368.93C1373.87 2369.97 1376.16 2379.77 1376.32 2385.61C1376.48 2391.19 1376.61 2390.94 1378.03 2392.53L1377.54 2393.07C1376.04 2394.68 1377.88 2396.32 1380.5 2395.71C1381.43 2395.49 1381.43 2395.51 1381.62 2396.38C1381.74 2396.95 1381.68 2397.03 1380.56 2397.72C1378.13 2399.22 1378.35 2400.03 1381.25 2400.6C1382.96 2400.93 1383 2400.99 1383.89 2404.31C1384.29 2405.77 1384.38 2405.92 1384.8 2405.92C1385.41 2405.92 1385.45 2404.56 1384.9 2402.47C1384.64 2401.45 1384.6 2400.99 1384.74 2400.76C1384.9 2400.5 1384.88 2400.36 1384.62 2400.17C1383.81 2399.55 1383.61 2397.74 1383.61 2397.74C1383.61 2397.74 1384.7 2397.25 1385.43 2396.87C1388.76 2395.2 1388.43 2394.09 1384.58 2393.89C1383.79 2393.86 1383.14 2394.07 1382.83 2393.91C1382.37 2393.7 1382.37 2393.17 1382.77 2392.97C1383.08 2392.81 1383.65 2392.63 1384.5 2392.42C1393.89 2389.89 1402.43 2389.34 1415.15 2388.27C1417.55 2388.08 1443.07 2386.91 1458.89 2388.85L1458.36 2389.22C1456.86 2390.35 1459.32 2391.29 1461.16 2392.12C1461.14 2392.16 1460.72 2393.62 1460.72 2393.7C1460.72 2393.72 1451.14 2395.14 1458.69 2398.27L1459.72 2398.69L1459.44 2399.99C1459.06 2401.84 1459.16 2402.87 1459.74 2402.95C1460.23 2403.03 1461 2401.63 1461.27 2400.15L1461.41 2399.44L1462.38 2399.55C1463.82 2399.75 1463.42 2398.75 1461.88 2398.19C1461.77 2398.15 1461.81 2397.5 1461.96 2396.62C1462.26 2394.92 1462.12 2395.02 1464.33 2394.82C1467.09 2394.57 1466.97 2392.67 1464.15 2391.75C1463.19 2391.43 1463.13 2391.35 1463.29 2390.5C1463.4 2389.85 1463.44 2389.83 1463.94 2390.03C1464.57 2390.27 1465.41 2389.99 1466.3 2389.75C1466.62 2389.67 1466.85 2389.42 1466.89 2389.1C1467.37 2386.09 1466.64 2382.75 1467.53 2379.03C1468.41 2375.3 1470.23 2370.27 1470.42 2368.59C1470.54 2367.69 1470.6 2367.61 1471.19 2367.45C1472.42 2367.13 1471.82 2366.35 1469.85 2365.67C1468.18 2365.1 1468.71 2365 1471.84 2365.32C1477.07 2365.83 1476.99 2364.73 1471.69 2363.03C1469.4 2362.3 1468.94 2362.05 1469.3 2361.69C1469.64 2361.36 1469.52 2361.18 1468.81 2360.88C1467.6 2360.37 1467.05 2360.49 1467.19 2361.18C1467.31 2361.73 1467.27 2361.77 1466.87 2361.67C1466.64 2361.61 1465.85 2361.43 1465.16 2361.28C1461.69 2360.49 1461.98 2361.61 1465.51 2362.56C1466.42 2362.8 1466.99 2362.8 1467.23 2362.99C1467.41 2363.15 1467.35 2363.78 1467.11 2363.86C1466.83 2363.96 1466.3 2363.74 1465.45 2363.66C1464.05 2363.55 1463.7 2363.58 1463.42 2363.84C1463.11 2364.12 1462.89 2364.08 1460.84 2363.55C1447.69 2360.07 1420.93 2359.21 1407.44 2360.07ZM1378.45 2363.11C1378.35 2363.23 1374.74 2365.58 1374.41 2365.64C1374.15 2365.69 1373.68 2364.89 1373.72 2364.57C1373.77 2364.24 1374.31 2364.22 1376.02 2363.49C1378.17 2362.56 1378.84 2362.62 1378.45 2363.11ZM1471.69 2363.8C1472.67 2364.08 1473.03 2364.63 1472.69 2364.59C1470.03 2364.33 1469.04 2364.22 1469.04 2364.06C1469.04 2363.98 1469.08 2363.11 1469.2 2363.09C1469.48 2363.07 1470.35 2363.43 1471.69 2363.8ZM1372.02 2364.1C1372.02 2364.18 1371.29 2364.63 1370.58 2364.98C1369 2365.77 1368.61 2365.38 1370.11 2364.45C1370.82 2364 1371.51 2363.53 1371.68 2363.49C1371.8 2363.49 1372.02 2364 1372.02 2364.1ZM1461.41 2391C1461.27 2391.13 1459.74 2390.36 1459.74 2390.17C1459.74 2389.77 1461.65 2389.3 1461.71 2389.67C1461.75 2389.91 1461.47 2390.94 1461.41 2391ZM1465.18 2393.32C1465.16 2393.66 1462.87 2393.82 1462.67 2393.64C1462.48 2393.46 1462.71 2392.51 1462.89 2392.36C1463.09 2392.18 1465.2 2392.99 1465.18 2393.32ZM1380.99 2394.53C1380.83 2394.66 1378.51 2394.92 1378.47 2394.41C1378.45 2394.11 1378.59 2393.4 1379.14 2393.2C1379.61 2393.01 1380.93 2393.34 1380.99 2394.53ZM1386 2394.92C1386.02 2395.51 1383.69 2396.48 1383.4 2396.36C1382.89 2396.16 1382.79 2395.35 1383.02 2394.96C1383.04 2394.94 1385.98 2394.31 1386 2394.92ZM1460.15 2397.07C1459.99 2397.6 1459.79 2397.58 1459.16 2397.29C1457.29 2396.4 1457.07 2396.08 1458.97 2395.39C1459.87 2395.06 1460.33 2395.04 1460.39 2395.53C1460.41 2395.81 1460.21 2396.89 1460.15 2397.07ZM1382.47 2399.63C1382 2399.99 1380.72 2399.73 1380.5 2399.36C1380.28 2398.96 1381.64 2398.19 1381.98 2398.23C1382.06 2398.25 1382.57 2399.57 1382.47 2399.63Z" fill="black"/>
<path fill-rule="evenodd" clip-rule="evenodd" d="M390.99 2546.43C387.971 2547.67 386.821 2547.33 382.401 2544C376.203 2539.33 371.513 2538.51 364.272 2540.81C358.864 2542.51 357.606 2542.78 349.305 2537.77C342.352 2533.58 339.046 2533.35 332.11 2536.57C326.612 2539.12 324.941 2538.92 316.119 2534.68C306.201 2529.9 298.403 2529.52 290.533 2533.44C289.078 2534.16 289.222 2534.25 289.132 2532.72L289.078 2531.5L290.246 2531.03C294.54 2529.33 291.234 2524.71 286.293 2525.53C283.239 2526.06 283.005 2529.67 285.934 2531.32C286.329 2531.54 286.652 2531.86 286.652 2532.02C286.652 2566.02 286.599 2547.54 285.395 2581.83C285.197 2587.65 285.143 2594.85 285.251 2598.52C285.359 2602.58 287.281 2602.26 287.587 2598.23C287.856 2594.67 288.09 2587.99 288.126 2581.66C288.162 2576.35 287.856 2577.03 290.821 2575.41C297.469 2571.8 307.621 2572.09 311.807 2573C332.991 2577.64 334.823 2560.86 350.527 2564.29C359.637 2566.28 365.17 2560.52 369.069 2556.8C375.16 2550.98 379.527 2548.84 383.066 2549.93C385.995 2550.85 389.031 2550.37 391.313 2548.62C392.697 2547.6 392.463 2545.84 390.99 2546.43ZM288.252 2573.51C288.252 2556.17 288.072 2552.92 288.413 2550.33C288.611 2548.87 288.773 2546.32 289.078 2539.21C289.186 2536.64 289.222 2536.62 290.12 2538.38C292.151 2542.35 292.815 2548.16 292.097 2555.72C291.737 2559.38 289.815 2569.03 288.88 2571.73L288.252 2573.51ZM382.581 2548.55C377.73 2547.38 373.022 2549.54 366.662 2555.9C359.457 2563.09 355.414 2564.65 348.694 2562.8C334.572 2558.92 332.344 2575.66 310.711 2571.62C310.477 2571.58 296.804 2569.54 290.839 2573.15C289.509 2573.96 289.455 2573.94 289.869 2573.02C295.672 2560.27 295.888 2543.63 290.354 2536.37L289.725 2535.54L290.929 2535C300.541 2530.62 308.088 2532.18 316.299 2536.05C325.57 2540.43 327.385 2540.59 333.691 2537.66C339.728 2534.86 343.16 2535.29 350.707 2539.76C357.031 2543.5 359.672 2543.91 365.799 2542.06C377.46 2538.56 381.862 2545.73 386.139 2547.87C388.043 2548.82 385.635 2549.29 382.581 2548.55Z" fill="black"/>
<path fill-rule="evenodd" clip-rule="evenodd" d="M196.945 2591.03C196.945 2590.98 195.725 2513.86 195.776 2513.81C196.741 2512.09 194.861 2510 192.065 2509.7C184.898 2508.93 125.019 2508.58 118.614 2513.2C116.53 2514.73 118.868 2530.39 119.173 2570.54C119.325 2591.64 119.528 2603.12 120.342 2609.48C121.46 2618.53 124.917 2620.15 131.322 2613.7C134.117 2610.9 137.32 2607.6 141.742 2602.72C159.533 2582.89 158.008 2583.61 165.429 2591.64C169.699 2596.21 187.795 2615.48 187.845 2615.53C191.404 2619.44 196.894 2618.17 197.148 2608C197.25 2604.24 197.097 2598.85 196.945 2591.03ZM186.473 2606.94C173.105 2591.38 161.617 2583.3 161.617 2581.52C161.617 2580.61 159.838 2577.86 155.111 2581.47C146.673 2587.98 128.119 2608.72 126.798 2610.19C125.374 2572.78 125.578 2528.71 124.358 2520.83C123.494 2515.29 122.833 2515.75 132.592 2515.03C146.52 2514.07 135.388 2514.22 191.251 2513.97C190.895 2526.78 188.964 2594.48 191.658 2608.67C192.573 2613.75 192.217 2613.65 186.473 2606.94Z" fill="black"/>
<path fill-rule="evenodd" clip-rule="evenodd" d="M556.243 2509.52C534.128 2512.31 543.284 2512.81 524.602 2513.18C517.5 2513.32 513.595 2513.55 513.09 2513.79C511.239 2514.73 482.358 2542.33 470.846 2555.5C470.005 2556.47 469.533 2557.72 469.567 2559C469.769 2569.63 471.519 2566.94 471.015 2593.3C470.712 2609.76 470.88 2605.31 474.818 2611.14C475.727 2612.48 480.372 2620.12 483.031 2616.76C483.604 2616.05 483.94 2608.71 483.301 2602.42C483.031 2599.52 483.974 2596.66 485.96 2594.54C499.996 2579.33 550.184 2525.81 557.22 2525.81C564.187 2525.81 568.429 2525.34 567.587 2519.14C567.419 2517.93 567.183 2516.25 566.914 2513.69C566.544 2509.92 563.279 2508.61 556.243 2509.52V2509.52ZM476.064 2602.28C473.573 2605.79 473.472 2605.65 473.707 2598.08C473.808 2594.51 474.078 2589.66 474.313 2587.31C475.357 2576.2 472.395 2567.51 472.765 2560.51L472.933 2557.31C484.344 2545.67 507.166 2523.45 517.197 2515.07C526.386 2515.04 536.586 2515.2 542.173 2513.86C547.155 2512.65 555.436 2511.47 559.172 2511.37H560.417C561.259 2511.37 561.966 2511.97 562.067 2512.81C562.1 2513.18 488.821 2584.24 476.064 2602.28Z" fill="black"/>
<path d="M726.3 2553.91C734.27 2551.74 734.925 2550.43 728.689 2549.1C726.427 2548.61 725.877 2548.36 725.877 2547.83C725.877 2546.98 726.512 2546.77 729.577 2546.54C732.642 2546.3 732.769 2546.28 732.557 2545.92C732.325 2545.56 727.357 2545.21 726.025 2545.48C724.165 2545.82 724.313 2546.33 723.869 2552.56C720.191 2552.92 719.113 2553.89 692.794 2554.02C679.56 2554.08 678.102 2554.13 678.102 2554.59C678.102 2556.07 720.614 2555.46 726.3 2553.91ZM727.378 2549.69C728.245 2549.9 729.535 2550.15 730.275 2550.24C732.473 2550.49 731.86 2551.02 728.583 2551.72C726.11 2552.22 725.666 2551.91 725.666 2549.58C725.666 2549.22 725.518 2549.2 727.378 2549.69Z" fill="black"/>
<path d="M747.44 2546.66C743.677 2545.71 736.976 2545.04 735.221 2545.4C733.889 2545.69 735.454 2546.71 737.272 2546.73C739.745 2546.77 749.195 2548.21 750.59 2548.78C751.689 2549.22 751.52 2549.41 749.66 2549.94L748.244 2550.32L747.778 2549.79C746.912 2548.78 743.149 2548.14 740.993 2548.63C738.942 2549.12 738.646 2550.66 739.682 2555.84C740.612 2560.51 740.337 2564.29 739.09 2564.08C738.139 2563.91 735.581 2563.96 734.946 2564.13C734.037 2564.38 733.573 2562.12 734.016 2559.54C734.418 2557.21 735.348 2553.01 735.623 2552.31C736.194 2550.81 735.412 2549.5 733.974 2549.5C732.938 2549.5 732.769 2549.71 733.361 2550.32C733.699 2550.68 733.826 2551.19 733.678 2551.65L733.488 2552.27C731.966 2557.15 732.241 2564.61 732.304 2570.47C732.325 2571.67 731.606 2572.79 730.507 2573.3C729.239 2573.87 726.808 2574.46 721.079 2575.39C716.766 2576.11 703.343 2576.64 689.179 2576.64C680.004 2576.66 679.37 2576.62 672.627 2575.6C670.132 2575.22 670.259 2575.22 670.259 2575.58C670.259 2576.89 681.209 2578.1 692.033 2577.95C712.475 2577.68 719.345 2577.3 726.173 2576.03C734.164 2574.55 734.735 2574.04 734.735 2568.21C734.735 2564.84 734.587 2565.01 737.335 2565.06C739.661 2565.08 739.534 2564.84 738.984 2568.08C738.012 2573.96 739.132 2575.05 746.151 2575.08C752.07 2575.08 753.507 2573.62 753.338 2567.68C753.232 2564.19 753.233 2563.79 753.359 2555.29C753.486 2548.08 753.592 2548.21 747.44 2546.66ZM741.965 2549.96C742.641 2549.88 745.707 2549.71 746.045 2550.3C746.193 2550.55 745.136 2550.72 743.149 2550.77C741.183 2550.83 740.274 2550.15 741.965 2549.96ZM752.218 2551.65C752.049 2552.46 751.795 2556.39 751.224 2559.33C750.738 2561.86 750.717 2562.56 751.14 2565.27C752.176 2572.14 749.998 2574.76 744.121 2573.72C740.189 2573.05 739.872 2572.03 741.331 2565.35C742.324 2560.79 742.028 2555.18 740.612 2551.82C740.485 2551.55 741.077 2551.5 745.284 2551.57C747.926 2551.61 750.463 2551.55 750.949 2551.42C752.239 2551.08 752.324 2551.15 752.218 2551.65Z" fill="black"/>
<path d="M666.771 2574.46C664.403 2573.53 663.431 2570.34 664.128 2565.84C664.488 2563.53 663.853 2559.69 662.395 2555.46C662.162 2554.8 662.056 2554.34 662.014 2554C661.782 2552.2 659.879 2551.99 660.746 2555.9C660.978 2556.98 661.232 2558.61 661.317 2559.54C661.528 2562.33 662.31 2565.94 662.204 2568.02L662.141 2569.47C662.12 2569.47 657.85 2568.84 656.37 2569.64C655.44 2570.15 655.461 2570.21 655.271 2567C655.101 2564.34 655.017 2563.39 654.425 2557.21C654.171 2554.46 653.854 2553.6 653.051 2553.28C652.269 2552.98 650.789 2552.98 650.451 2553.22C650.028 2553.49 650.747 2553.77 651.36 2553.81C651.613 2553.83 651.93 2554.46 651.127 2554.61C649.521 2554.89 648.4 2554.82 647.681 2554.66C647.174 2554.55 647.026 2553.87 647.449 2553.56C651.106 2550.91 662.183 2547.81 668.124 2547.76C670.914 2547.74 671.929 2548.4 669.519 2548.59C662.268 2549.18 659.773 2551.57 664.678 2553.62C667.151 2554.63 676.051 2555.25 675.501 2554.36C675.438 2554.23 675.015 2554.15 674.571 2554.15H673.768L673.556 2551.42C673.197 2546.85 670.216 2545.56 662.289 2546.56C654.192 2547.55 644.616 2551.86 645.039 2554.32C645.229 2555.52 645.356 2557.93 645.61 2561.65C646.413 2573.28 645.335 2562.75 646.646 2574.97C647.237 2580.47 648.548 2582.09 651.888 2581.4C654.869 2580.78 656.264 2578.39 655.947 2574.44C655.736 2571.8 655.757 2571.61 656.116 2571.4C658.463 2570 662.141 2569.81 662.268 2571.06C662.522 2573.51 664.001 2574.86 667.045 2575.41C668.124 2575.6 667.976 2574.95 666.771 2574.46ZM671.781 2550.91C671.781 2552.86 672.098 2553.64 672.161 2554L670.428 2553.85C663.219 2553.3 662.416 2550.85 669.096 2549.81C671.971 2549.37 671.76 2549.29 671.781 2550.91ZM652.248 2579.81C650.091 2581.06 648.717 2580.47 648.717 2578.29C648.717 2577.08 648.485 2573.7 648.083 2568.8C647.787 2565.44 647.322 2562.77 646.73 2558.8C646.519 2557.34 646.371 2556.45 646.159 2555.46C648.485 2555.56 650.26 2555.73 651.465 2555.35C653.199 2554.78 653.072 2554.49 653.22 2559.28C653.558 2569.85 653.812 2574.38 654.108 2575.39C654.636 2577.21 653.939 2578.84 652.248 2579.81Z" fill="black"/>
</svg>