<svg width="84" height="224" viewBox="0 0 84 224" fill="none" xmlns="http://www.w3.org/2000/svg">
<path d="M38.1837 1.68369C28.0504 4.48369 22.7171 7.68369 14.9837 15.817C6.98373 24.217 1.38373 34.4837 0.0503927 43.2837C-0.349607 46.7504 1.65039 68.0837 5.38373 98.617C8.85039 126.084 13.5171 165.284 15.9171 185.817L20.3171 223.15L42.8504 222.75C55.3837 222.617 69.3837 221.95 74.1837 221.417L82.8504 220.484L83.2504 191.15C83.7837 155.95 81.2504 56.4837 79.5171 37.817C77.1171 13.817 73.2504 6.21701 60.9837 1.81702C54.1837 -0.582973 46.4504 -0.582973 38.1837 1.68369ZM61.1171 7.41703C63.1171 8.35035 65.9171 11.417 67.2504 14.217C72.8504 25.1503 75.5171 59.417 75.5171 119.017V161.55L65.2504 151.684C59.5171 146.217 52.1837 139.684 48.8504 137.15C45.5171 134.75 39.6504 129.684 35.9171 125.95C30.0504 120.35 28.8504 118.484 28.8504 114.484C28.8504 109.55 24.3171 54.617 22.3171 35.817C21.5171 27.9504 21.5171 23.2837 22.5837 19.9504C26.7171 7.81702 48.0504 0.750355 61.1171 7.41703ZM17.5171 68.4837C18.5837 80.8837 21.6504 113.95 24.1837 141.817C26.7171 169.684 29.3837 198.217 30.0504 205.15C31.1171 216.884 30.4504 221.817 27.9171 219.417C27.3837 218.884 25.3837 203.95 23.2504 186.084C21.2504 168.35 16.8504 131.284 13.3837 103.817C6.98373 51.2837 6.58373 42.0837 10.8504 32.4837L13.2504 27.1503L14.3171 36.4837C14.9837 41.5504 16.3171 55.9504 17.5171 68.4837ZM41.5171 139.15C46.7171 143.15 56.5837 152.084 63.2504 159.017C75.2504 171.417 75.5171 171.817 75.5171 177.95V184.217L58.5837 167.684C49.1171 158.484 39.3837 149.417 36.5837 147.417C32.5837 144.217 31.6504 142.75 31.2504 137.817C30.9837 134.484 31.1171 131.817 31.3837 131.817C31.7837 131.817 36.3171 135.15 41.5171 139.15ZM57.9171 175.684L75.5171 193.15V199.55V205.95L54.1837 184.484C34.1837 164.35 32.8504 162.75 32.8504 157.95V153.017L36.5837 155.55C38.5837 157.017 48.1837 166.084 57.9171 175.684ZM55.7837 194.617C66.1837 205.684 75.1171 215.284 75.2504 215.95C75.5171 216.617 73.3837 217.15 70.5837 217.017C65.9171 217.017 64.8504 216.217 56.8504 206.217C52.0504 200.35 44.9837 191.684 41.2504 186.884C34.5837 178.884 32.5837 174.484 35.3837 174.484C36.0504 174.484 45.2504 183.55 55.7837 194.617ZM47.3837 204.75C52.5837 211.284 56.8504 216.884 56.8504 217.417C56.8504 218.084 55.9171 218.484 54.8504 218.484C52.9837 218.484 38.1837 200.084 36.4504 195.417C34.5837 190.484 38.3171 193.684 47.3837 204.75ZM42.0504 218.484C39.3837 220.217 38.1837 218.75 38.1837 214.217V210.084L40.9837 213.817C43.3837 216.75 43.5171 217.684 42.0504 218.484Z" fill="black"/>
</svg>
