<svg xmlns="http://www.w3.org/2000/svg" width="1080" height="810" viewBox="-540 -405 1080 810"><defs><filter id="golden-qr-palette-golden-qr-palette-card-filter" x="-50%" y="-50%" width="200%" height="200%"><feDropShadow dx="0" dy="20" stdDeviation="22" flood-color="#1d1606" flood-opacity="0.52"/></filter></defs><g opacity="1" transform="translate(-540 -405) rotate(0 540 405)" filter="url(#golden-qr-palette-golden-qr-palette-card-filter)"><path d="M 28 0 H 1052 A 28 28 0 0 1 1080 28 V 782 A 28 28 0 0 1 1052 810 H 28 A 28 28 0 0 1 0 782 V 28 A 28 28 0 0 1 28 0 Z" fill="#ffd80a"/></g><g opacity="1" transform="translate(-120 -120) rotate(0 120 120)"><g data-canvas-qr-background="rect"><defs></defs><rect x="0" y="0" width="240" height="240" rx="0" fill="#f8fafc"/></g><g transform="translate(-99.31034482758622 -99.31034482758622)"><svg viewBox="0 0 53 53" role="img" aria-label="QR Code" xmlns="http://www.w3.org/2000/svg" style="border-radius:0%;display:block" width="439" height="439" preserveAspectRatio="xMidYMid meet" shape-rendering="geometricPrecision"><path fill="transparent" d="M0,0 h53v53H0z" data-testid="background"/><path fill="#111827" d="M 12 14.5v 2a 2.5 2.5, 0, 0, 0, 2.5 2.5h 2a 2.5 2.5, 0, 0, 0, 2.5 -2.5v -2a 2.5 2.5, 0, 0, 0, -2.5 -2.5h -2a 2.5 2.5, 0, 0, 0, -2.5 2.5M 14.5 13h 2a 1.5 1.5, 0, 0, 1, 1.5 1.5v 2a 1.5 1.5, 0, 0, 1, -1.5 1.5h -2a 1.5 1.5, 0, 0, 1, -1.5 -1.5v -2a 1.5 1.5, 0, 0, 1, 1.5 -1.5M 34 14.5v 2a 2.5 2.5, 0, 0, 0, 2.5 2.5h 2a 2.5 2.5, 0, 0, 0, 2.5 -2.5v -2a 2.5 2.5, 0, 0, 0, -2.5 -2.5h -2a 2.5 2.5, 0, 0, 0, -2.5 2.5M 36.5 13h 2a 1.5 1.5, 0, 0, 1, 1.5 1.5v 2a 1.5 1.5, 0, 0, 1, -1.5 1.5h -2a 1.5 1.5, 0, 0, 1, -1.5 -1.5v -2a 1.5 1.5, 0, 0, 1, 1.5 -1.5M 12 36.5v 2a 2.5 2.5, 0, 0, 0, 2.5 2.5h 2a 2.5 2.5, 0, 0, 0, 2.5 -2.5v -2a 2.5 2.5, 0, 0, 0, -2.5 -2.5h -2a 2.5 2.5, 0, 0, 0, -2.5 2.5M 14.5 35h 2a 1.5 1.5, 0, 0, 1, 1.5 1.5v 2a 1.5 1.5, 0, 0, 1, -1.5 1.5h -2a 1.5 1.5, 0, 0, 1, -1.5 -1.5v -2a 1.5 1.5, 0, 0, 1, 1.5 -1.5" data-testid="finder-patterns-outer"/><rect x="14" y="14" width="3" height="3" fill="#111827" rx="3" data-testid="finder-patterns-inner"/><rect x="36" y="14" width="3" height="3" fill="#111827" rx="3" data-testid="finder-patterns-inner"/><rect x="14" y="36" width="3" height="3" fill="#111827" rx="3" data-testid="finder-patterns-inner"/><g data-qr-layer="dot-palette" data-qr-palette-size="4"><g fill="#0f172a" data-qr-layer="dot-palette-fill" data-qr-palette-index="0"><path d="M 27 12    v 1    h 0.5    a 0.5 0.5, 0, 0, 0, 0 -1 M 29 13     v 1     h -1     v -0.5     a 0.5 0.5, 0, 0, 1, 0.5 -0.5 M 29 13    v 1    h 0.5    a 0.5 0.5, 0, 0, 0, 0 -1 M 27 15    v 1    h -0.5    a 0.5 0.5, 0, 0, 1, 0 -1 M27,15h1v1h-1Z M25,16.5a0.5,0.5 0 1,0 1,0a0.5,0.5 0 1,0 -1,0Z M30,17h1v1h-1Z M 24 18    h 1    v -0.5    a 0.5 0.5, 0, 0, 0, -1 0 M 24 18    h 1    v 0.5    a 0.5 0.5, 0, 0, 1, -1 0 M 27 19    v 1    h 0.5    a 0.5 0.5, 0, 0, 0, 0 -1 M 22 20    v 1    h -0.5    a 0.5 0.5, 0, 0, 1, 0 -1 M22,20h1v1h-1Z M 25 20    v 1    h -0.5    a 0.5 0.5, 0, 0, 1, 0 -1 M25,20h1v1h-1Z M 37 20    v 1    h -0.5    a 0.5 0.5, 0, 0, 1, 0 -1 M37,20h1v1h-1Z M 14 21     v 1     h -0.5     a 0.5 0.5, 0, 0, 1, -0.5 -0.5     v -0.5     h 1 M14,21h1v1h-1Z M19,21h1v1h-1Z M 23 21    v 1    h 0.5    a 0.5 0.5, 0, 0, 0, 0 -1 M 29 21     v 1     h -1     v -0.5     a 0.5 0.5, 0, 0, 1, 0.5 -0.5 M 29 21     v 1     h 1     v -0.5     a 0.5 0.5, 0, 0, 0, -0.5 -0.5 M 32 21    h 1    v -0.5    a 0.5 0.5, 0, 0, 0, -1 0 M14,22h1v1h-1Z M 21 23    h 1    v 0.5    a 0.5 0.5, 0, 0, 1, -1 0 M 25 23     v 1     h -1     v -0.5     a 0.5 0.5, 0, 0, 1, 0.5 -0.5 M25,23h1v1h-1Z M 39 23    h 1    v 0.5    a 0.5 0.5, 0, 0, 1, -1 0 M14,24h1v1h-1Z M 35 24     v 1     h 1     v -0.5     a 0.5 0.5, 0, 0, 0, -0.5 -0.5 M 13 25    v 1    h -0.5    a 0.5 0.5, 0, 0, 1, 0 -1 M13,25h1v1h-1Z M14,25h1v1h-1Z M25,25.5a0.5,0.5 0 1,0 1,0a0.5,0.5 0 1,0 -1,0Z M 40 25     v 1     h -1     v -0.5     a 0.5 0.5, 0, 0, 1, 0.5 -0.5 M 40 25     v 1     h 1     v -0.5     a 0.5 0.5, 0, 0, 0, -0.5 -0.5 M17,27.5a0.5,0.5 0 1,0 1,0a0.5,0.5 0 1,0 -1,0Z M19,27h1v1h-1Z M 40 27    h 1    v 0.5    a 0.5 0.5, 0, 0, 1, -1 0 M23,28h1v1h-1Z M 28 28     v 1     h -1     v -0.5     a 0.5 0.5, 0, 0, 1, 0.5 -0.5 M 28 28     v 1     h 1     v -0.5     a 0.5 0.5, 0, 0, 0, -0.5 -0.5 M 33 28     v 1     h -1     v -0.5     a 0.5 0.5, 0, 0, 1, 0.5 -0.5 M33,28h1v1h-1Z M17,29.5a0.5,0.5 0 1,0 1,0a0.5,0.5 0 1,0 -1,0Z M 23 29    h 1    v 0.5    a 0.5 0.5, 0, 0, 1, -1 0 M 30 29     v 1     h 0.5     a 0.5 0.5, 0, 0, 0, 0.5 -0.5    v -0.5    h -1 M32,29h1v1h-1Z M 34 29    h 1    v 0.5    a 0.5 0.5, 0, 0, 1, -1 0 M 40 29     v 1     h 1     v -0.5     a 0.5 0.5, 0, 0, 0, -0.5 -0.5 M12,30.5a0.5,0.5 0 1,0 1,0a0.5,0.5 0 1,0 -1,0Z M28,30h1v1h-1Z M32,30h1v1h-1Z M25,31.5a0.5,0.5 0 1,0 1,0a0.5,0.5 0 1,0 -1,0Z M 29 31     v 1     h 1     v -0.5     a 0.5 0.5, 0, 0, 0, -0.5 -0.5 M32,31h1v1h-1Z M 17 32    h 1    v -0.5    a 0.5 0.5, 0, 0, 0, -1 0 M17,32h1v1h-1Z M34,34.5a0.5,0.5 0 1,0 1,0a0.5,0.5 0 1,0 -1,0Z M36,34h1v1h-1Z M 39 34    v 1    h -0.5    a 0.5 0.5, 0, 0, 1, 0 -1 M39,34h1v1h-1Z M 40 34     v 1     h 0.5     a 0.5 0.5, 0, 0, 0, 0.5 -0.5    v -0.5    h -1 M26,35.5a0.5,0.5 0 1,0 1,0a0.5,0.5 0 1,0 -1,0Z M39,35h1v1h-1Z M 21 36    v 1    h -0.5    a 0.5 0.5, 0, 0, 1, 0 -1 M 21 36     v 1     h 1     v -0.5     a 0.5 0.5, 0, 0, 0, -0.5 -0.5 M32,36h1v1h-1Z M 37 36    v 1    h 0.5    a 0.5 0.5, 0, 0, 0, 0 -1 M 23 37    h 1    v -0.5    a 0.5 0.5, 0, 0, 0, -1 0 M 27 37    h 1    v -0.5    a 0.5 0.5, 0, 0, 0, -1 0 M 27 37     v 1     h -1     v -0.5     a 0.5 0.5, 0, 0, 1, 0.5 -0.5 M 27 37     v 1     h 0.5     a 0.5 0.5, 0, 0, 0, 0.5 -0.5    v -0.5    h -1 M 21 39     v 1     h -0.5     a 0.5 0.5, 0, 0, 1, -0.5 -0.5     v -0.5     h 1 M21,39h1v1h-1Z M 25 39    h 1    v 0.5    a 0.5 0.5, 0, 0, 1, -1 0 M 23 40    v 1    h 0.5    a 0.5 0.5, 0, 0, 0, 0 -1 M 29 40    v 1    h -0.5    a 0.5 0.5, 0, 0, 1, 0 -1 M29,40h1v1h-1Z M32,40h1v1h-1Z" fill="#0f172a" fill-rule="nonzero" data-qr-palette-index="0"/></g><g fill="#2563eb" data-qr-layer="dot-palette-fill" data-qr-palette-index="1"><path d="M 25 12     v 1     h -1     v -0.5     a 0.5 0.5, 0, 0, 1, 0.5 -0.5 M25,12h1v1h-1Z M32,12.5a0.5,0.5 0 1,0 1,0a0.5,0.5 0 1,0 -1,0Z M 26 13     v 1     h 0.5     a 0.5 0.5, 0, 0, 0, 0.5 -0.5    v -0.5    h -1 M 23 14     v 1     h 1     v -0.5     a 0.5 0.5, 0, 0, 0, -0.5 -0.5 M20,15h1v1h-1Z M23,15h1v1h-1Z M 23 16     v 1     h -0.5     a 0.5 0.5, 0, 0, 1, -0.5 -0.5     v -0.5     h 1 M 23 16     v 1     h 0.5     a 0.5 0.5, 0, 0, 0, 0.5 -0.5    v -0.5    h -1 M28,18.5a0.5,0.5 0 1,0 1,0a0.5,0.5 0 1,0 -1,0Z M32,18.5a0.5,0.5 0 1,0 1,0a0.5,0.5 0 1,0 -1,0Z M 20 19    h 1    v -0.5    a 0.5 0.5, 0, 0, 0, -1 0 M 20 19    h 1    v 0.5    a 0.5 0.5, 0, 0, 1, -1 0 M 22 19    h 1    v -0.5    a 0.5 0.5, 0, 0, 0, -1 0 M22,19h1v1h-1Z M16,20.5a0.5,0.5 0 1,0 1,0a0.5,0.5 0 1,0 -1,0Z M39,20h1v1h-1Z M22,21h1v1h-1Z M 33 21     v 1     h -0.5     a 0.5 0.5, 0, 0, 1, -0.5 -0.5     v -0.5     h 1 M33,21h1v1h-1Z M 22 22     v 1     h -1     v -0.5     a 0.5 0.5, 0, 0, 1, 0.5 -0.5 M 22 22     v 1     h 0.5     a 0.5 0.5, 0, 0, 0, 0.5 -0.5    v -0.5    h -1 M 37 22     v 1     h -1     v -0.5     a 0.5 0.5, 0, 0, 1, 0.5 -0.5 M 37 22     v 1     h 0.5     a 0.5 0.5, 0, 0, 0, 0.5 -0.5    v -0.5    h -1 M 13 23     v 1     h -0.5     a 0.5 0.5, 0, 0, 1, -0.5 -0.5     v -0.5     h 1 M13,23h1v1h-1Z M14,23h1v1h-1Z M 19 24    v 1    h -0.5    a 0.5 0.5, 0, 0, 1, 0 -1 M19,24h1v1h-1Z M29,24h1v1h-1Z M 30 25     v 1     h -0.5     a 0.5 0.5, 0, 0, 1, -0.5 -0.5     v -0.5     h 1 M 30 25     v 1     h 1     v -0.5     a 0.5 0.5, 0, 0, 0, -0.5 -0.5 M 19 26    v 1    h -0.5    a 0.5 0.5, 0, 0, 1, 0 -1 M19,26h1v1h-1Z M 28 26    v 1    h 0.5    a 0.5 0.5, 0, 0, 0, 0 -1 M 35 26     v 1     h -0.5     a 0.5 0.5, 0, 0, 1, -0.5 -0.5     v -0.5     h 1 M35,26h1v1h-1Z M40,26h1v1h-1Z M 23 27     v 1     h 1     v -0.5     a 0.5 0.5, 0, 0, 0, -0.5 -0.5 M21,28h1v1h-1Z M22,28h1v1h-1Z M30,28h1v1h-1Z M 34 28     v 1     h 1     v -0.5     a 0.5 0.5, 0, 0, 0, -0.5 -0.5 M19,29h1v1h-1Z M 33 30    v 1    h 0.5    a 0.5 0.5, 0, 0, 0, 0 -1 M 38 30     v 1     h -0.5     a 0.5 0.5, 0, 0, 1, -0.5 -0.5     v -0.5     h 1 M38,30h1v1h-1Z M39,30h1v1h-1Z M13,31.5a0.5,0.5 0 1,0 1,0a0.5,0.5 0 1,0 -1,0Z M 21 31    h 1    v -0.5    a 0.5 0.5, 0, 0, 0, -1 0 M 21 31    h 1    v 0.5    a 0.5 0.5, 0, 0, 1, -1 0 M28,31h1v1h-1Z M 15 32    v 1    h -0.5    a 0.5 0.5, 0, 0, 1, 0 -1 M15,32h1v1h-1Z M 28 32    v 1    h -0.5    a 0.5 0.5, 0, 0, 1, 0 -1 M28,32h1v1h-1Z M 32 32    v 1    h -0.5    a 0.5 0.5, 0, 0, 1, 0 -1 M32,32h1v1h-1Z M33,32h1v1h-1Z M 21 33     v 1     h 1     v -0.5     a 0.5 0.5, 0, 0, 0, -0.5 -0.5 M 26 33    v 1    h 0.5    a 0.5 0.5, 0, 0, 0, 0 -1 M30,33.5a0.5,0.5 0 1,0 1,0a0.5,0.5 0 1,0 -1,0Z M 40 33     v 1     h -1     v -0.5     a 0.5 0.5, 0, 0, 1, 0.5 -0.5 M 40 33     v 1     h 1     v -0.5     a 0.5 0.5, 0, 0, 0, -0.5 -0.5 M 21 34     v 1     h -0.5     a 0.5 0.5, 0, 0, 1, -0.5 -0.5     v -0.5     h 1 M 21 34     v 1     h 0.5     a 0.5 0.5, 0, 0, 0, 0.5 -0.5    v -0.5    h -1 M 24 34    v 1    h -0.5    a 0.5 0.5, 0, 0, 1, 0 -1 M24,34h1v1h-1Z M 32 34    v 1    h -0.5    a 0.5 0.5, 0, 0, 1, 0 -1 M32,34h1v1h-1Z M36,35h1v1h-1Z M35,36h1v1h-1Z M36,36h1v1h-1Z M 24 37     v 1     h -0.5     a 0.5 0.5, 0, 0, 1, -0.5 -0.5     v -0.5     h 1 M 24 37    v 1    h 0.5    a 0.5 0.5, 0, 0, 0, 0 -1 M36,37h1v1h-1Z M 21 38     v 1     h -1     v -0.5     a 0.5 0.5, 0, 0, 1, 0.5 -0.5 M21,38h1v1h-1Z M 36 38     v 1     h -1     v -0.5     a 0.5 0.5, 0, 0, 1, 0.5 -0.5 M 36 38     v 1     h 0.5     a 0.5 0.5, 0, 0, 0, 0.5 -0.5    v -0.5    h -1 M 32 39     v 1     h 1     v -0.5     a 0.5 0.5, 0, 0, 0, -0.5 -0.5 M37,39.5a0.5,0.5 0 1,0 1,0a0.5,0.5 0 1,0 -1,0Z M 34 40    v 1    h 0.5    a 0.5 0.5, 0, 0, 0, 0 -1 M 39 40    h 1    v -0.5    a 0.5 0.5, 0, 0, 0, -1 0 M 40 40     v 1     h -0.5     a 0.5 0.5, 0, 0, 1, -0.5 -0.5     v -0.5     h 1 M 40 40    v 1    h 0.5    a 0.5 0.5, 0, 0, 0, 0 -1" fill="#2563eb" fill-rule="nonzero" data-qr-palette-index="1"/></g><g fill="#f97316" data-qr-layer="dot-palette-fill" data-qr-palette-index="2"><path d="M31,13.5a0.5,0.5 0 1,0 1,0a0.5,0.5 0 1,0 -1,0Z M20,14h1v1h-1Z M21,14h1v1h-1Z M 22 14    h 1    v -0.5    a 0.5 0.5, 0, 0, 0, -1 0 M22,14h1v1h-1Z M21,15h1v1h-1Z M 28 16     v 1     h -0.5     a 0.5 0.5, 0, 0, 1, -0.5 -0.5     v -0.5     h 1 M28,16h1v1h-1Z M 31 16     v 1     h 1     v -0.5     a 0.5 0.5, 0, 0, 0, -0.5 -0.5 M 31 17     v 1     h 0.5     a 0.5 0.5, 0, 0, 0, 0.5 -0.5    v -0.5    h -1 M 30 18    h 1    v 0.5    a 0.5 0.5, 0, 0, 1, -1 0 M 26 20     v 1     h 0.5     a 0.5 0.5, 0, 0, 0, 0.5 -0.5    v -0.5    h -1 M38,20h1v1h-1Z M 40 20     v 1     h 1     v -0.5     a 0.5 0.5, 0, 0, 0, -0.5 -0.5 M37,21h1v1h-1Z M40,21h1v1h-1Z M 40 22     v 1     h -1     v -0.5     a 0.5 0.5, 0, 0, 1, 0.5 -0.5 M 40 22     v 1     h 0.5     a 0.5 0.5, 0, 0, 0, 0.5 -0.5    v -0.5    h -1 M19,23h1v1h-1Z M 26 23    h 1    v -0.5    a 0.5 0.5, 0, 0, 0, -1 0 M26,23h1v1h-1Z M 24 24    h 1    v 0.5    a 0.5 0.5, 0, 0, 1, -1 0 M 27 24     v 1     h -0.5     a 0.5 0.5, 0, 0, 1, -0.5 -0.5     v -0.5     h 1 M 27 24    v 1    h 0.5    a 0.5 0.5, 0, 0, 0, 0 -1 M35,25h1v1h-1Z M 20 26    v 1    h 0.5    a 0.5 0.5, 0, 0, 0, 0 -1 M 22 26    h 1    v -0.5    a 0.5 0.5, 0, 0, 0, -1 0 M22,26h1v1h-1Z M24,26.5a0.5,0.5 0 1,0 1,0a0.5,0.5 0 1,0 -1,0Z M 27 26     v 1     h -1     v -0.5     a 0.5 0.5, 0, 0, 1, 0.5 -0.5 M27,26h1v1h-1Z M30,26h1v1h-1Z M14,27h1v1h-1Z M 30 27    v 1    h -0.5    a 0.5 0.5, 0, 0, 1, 0 -1 M30,27h1v1h-1Z M 31 27    v 1    h 0.5    a 0.5 0.5, 0, 0, 0, 0 -1 M 35 27    h 1    v 0.5    a 0.5 0.5, 0, 0, 1, -1 0 M 13 28    v 1    h -0.5    a 0.5 0.5, 0, 0, 1, 0 -1 M13,28h1v1h-1Z M14,28h1v1h-1Z M 19 28    v 1    h -0.5    a 0.5 0.5, 0, 0, 1, 0 -1 M19,28h1v1h-1Z M20,28h1v1h-1Z M 15 29     v 1     h -0.5     a 0.5 0.5, 0, 0, 1, -0.5 -0.5     v -0.5     h 1 M 15 29     v 1     h 1     v -0.5     a 0.5 0.5, 0, 0, 0, -0.5 -0.5 M27,29h1v1h-1Z M29,29h1v1h-1Z M 37 29    h 1    v -0.5    a 0.5 0.5, 0, 0, 0, -1 0 M37,29h1v1h-1Z M 39 29    h 1    v -0.5    a 0.5 0.5, 0, 0, 0, -1 0 M39,29h1v1h-1Z M 19 30    v 1    h -0.5    a 0.5 0.5, 0, 0, 1, 0 -1 M 19 30     v 1     h 0.5     a 0.5 0.5, 0, 0, 0, 0.5 -0.5    v -0.5    h -1 M40,30h1v1h-1Z M23,31.5a0.5,0.5 0 1,0 1,0a0.5,0.5 0 1,0 -1,0Z M 40 31    h 1    v 0.5    a 0.5 0.5, 0, 0, 1, -1 0 M12,32.5a0.5,0.5 0 1,0 1,0a0.5,0.5 0 1,0 -1,0Z M 18 32    v 1    h 0.5    a 0.5 0.5, 0, 0, 0, 0 -1 M 29 32     v 1     h 0.5     a 0.5 0.5, 0, 0, 0, 0.5 -0.5    v -0.5    h -1 M28,34h1v1h-1Z M32,35h1v1h-1Z M 39 36    h 1    v 0.5    a 0.5 0.5, 0, 0, 1, -1 0 M 26 38     v 1     h -1     v -0.5     a 0.5 0.5, 0, 0, 1, 0.5 -0.5 M 26 38     v 1     h 0.5     a 0.5 0.5, 0, 0, 0, 0.5 -0.5    v -0.5    h -1 M 38 38    h 1    v -0.5    a 0.5 0.5, 0, 0, 0, -1 0 M 38 38    h 1    v 0.5    a 0.5 0.5, 0, 0, 1, -1 0 M 22 39     v 1     h 1     v -0.5     a 0.5 0.5, 0, 0, 0, -0.5 -0.5 M 22 40     v 1     h -0.5     a 0.5 0.5, 0, 0, 1, -0.5 -0.5     v -0.5     h 1 M22,40h1v1h-1Z M33,40h1v1h-1Z M36,40.5a0.5,0.5 0 1,0 1,0a0.5,0.5 0 1,0 -1,0Z" fill="#f97316" fill-rule="nonzero" data-qr-palette-index="2"/></g><g fill="#16a34a" data-qr-layer="dot-palette-fill" data-qr-palette-index="3"><path d="M26,12h1v1h-1Z M30,12.5a0.5,0.5 0 1,0 1,0a0.5,0.5 0 1,0 -1,0Z M 20 13    h 1    v -0.5    a 0.5 0.5, 0, 0, 0, -1 0 M20,13h1v1h-1Z M 25 13     v 1     h -0.5     a 0.5 0.5, 0, 0, 1, -0.5 -0.5     v -0.5     h 1 M25,13h1v1h-1Z M 25 14    h 1    v 0.5    a 0.5 0.5, 0, 0, 1, -1 0 M 28 14     v 1     h -1     v -0.5     a 0.5 0.5, 0, 0, 1, 0.5 -0.5 M 28 14     v 1     h 0.5     a 0.5 0.5, 0, 0, 0, 0.5 -0.5    v -0.5    h -1 M32,14.5a0.5,0.5 0 1,0 1,0a0.5,0.5 0 1,0 -1,0Z M22,15h1v1h-1Z M 20 16    h 1    v 0.5    a 0.5 0.5, 0, 0, 1, -1 0 M29,16h1v1h-1Z M 30 16    h 1    v -0.5    a 0.5 0.5, 0, 0, 0, -1 0 M30,16h1v1h-1Z M21,17.5a0.5,0.5 0 1,0 1,0a0.5,0.5 0 1,0 -1,0Z M 26 18    h 1    v -0.5    a 0.5 0.5, 0, 0, 0, -1 0 M26,18h1v1h-1Z M 26 19     v 1     h -1     v -0.5     a 0.5 0.5, 0, 0, 1, 0.5 -0.5 M26,19h1v1h-1Z M 14 20     v 1     h -1     v -0.5     a 0.5 0.5, 0, 0, 1, 0.5 -0.5 M 14 20     v 1     h 1     v -0.5     a 0.5 0.5, 0, 0, 0, -0.5 -0.5 M 19 20    v 1    h -0.5    a 0.5 0.5, 0, 0, 1, 0 -1 M 19 20     v 1     h 1     v -0.5     a 0.5 0.5, 0, 0, 0, -0.5 -0.5 M17,21.5a0.5,0.5 0 1,0 1,0a0.5,0.5 0 1,0 -1,0Z M 25 21    h 1    v 0.5    a 0.5 0.5, 0, 0, 1, -1 0 M 34 21    h 1    v -0.5    a 0.5 0.5, 0, 0, 0, -1 0 M 34 21     v 1     h 0.5     a 0.5 0.5, 0, 0, 0, 0.5 -0.5    v -0.5    h -1 M 15 22    v 1    h 0.5    a 0.5 0.5, 0, 0, 0, 0 -1 M 19 22    v 1    h -0.5    a 0.5 0.5, 0, 0, 1, 0 -1 M19,22h1v1h-1Z M 29 22     v 1     h -0.5     a 0.5 0.5, 0, 0, 1, -0.5 -0.5     v -0.5     h 1 M29,22h1v1h-1Z M 12 23    h 1    v -0.5    a 0.5 0.5, 0, 0, 0, -1 0 M29,23h1v1h-1Z M 34 23    v 1    h -0.5    a 0.5 0.5, 0, 0, 1, 0 -1 M 34 23     v 1     h 1     v -0.5     a 0.5 0.5, 0, 0, 0, -0.5 -0.5 M 36 23    h 1    v 0.5    a 0.5 0.5, 0, 0, 1, -1 0 M34,24h1v1h-1Z M19,25h1v1h-1Z M 33 25    v 1    h -0.5    a 0.5 0.5, 0, 0, 1, 0 -1 M33,25h1v1h-1Z M34,25h1v1h-1Z M 14 26     v 1     h -0.5     a 0.5 0.5, 0, 0, 1, -0.5 -0.5     v -0.5     h 1 M14,26h1v1h-1Z M16,26.5a0.5,0.5 0 1,0 1,0a0.5,0.5 0 1,0 -1,0Z M 39 26    v 1    h -0.5    a 0.5 0.5, 0, 0, 1, 0 -1 M39,26h1v1h-1Z M22,27h1v1h-1Z M 26 27    v 1    h -0.5    a 0.5 0.5, 0, 0, 1, 0 -1 M 26 27     v 1     h 0.5     a 0.5 0.5, 0, 0, 0, 0.5 -0.5    v -0.5    h -1 M 20 29     v 1     h 0.5     a 0.5 0.5, 0, 0, 0, 0.5 -0.5    v -0.5    h -1 M28,29h1v1h-1Z M 16 30     v 1     h -0.5     a 0.5 0.5, 0, 0, 1, -0.5 -0.5     v -0.5     h 1 M 16 30    v 1    h 0.5    a 0.5 0.5, 0, 0, 0, 0 -1 M 27 30    v 1    h -0.5    a 0.5 0.5, 0, 0, 1, 0 -1 M27,30h1v1h-1Z M35,30.5a0.5,0.5 0 1,0 1,0a0.5,0.5 0 1,0 -1,0Z M16,32h1v1h-1Z M 34 32    h 1    v -0.5    a 0.5 0.5, 0, 0, 0, -1 0 M34,32h1v1h-1Z M35,32h1v1h-1Z M 36 32    h 1    v -0.5    a 0.5 0.5, 0, 0, 0, -1 0 M36,32h1v1h-1Z M 20 33    h 1    v -0.5    a 0.5 0.5, 0, 0, 0, -1 0 M20,33h1v1h-1Z M 24 33    h 1    v -0.5    a 0.5 0.5, 0, 0, 0, -1 0 M24,33h1v1h-1Z M25,33h1v1h-1Z M28,33h1v1h-1Z M32,33h1v1h-1Z M36,33h1v1h-1Z M 29 34    v 1    h 0.5    a 0.5 0.5, 0, 0, 0, 0 -1 M 24 35    h 1    v 0.5    a 0.5 0.5, 0, 0, 1, -1 0 M 28 35    h 1    v 0.5    a 0.5 0.5, 0, 0, 1, -1 0 M33,36h1v1h-1Z M34,36h1v1h-1Z M21,37h1v1h-1Z M 33 37     v 1     h -0.5     a 0.5 0.5, 0, 0, 1, -0.5 -0.5     v -0.5     h 1 M 33 37     v 1     h 0.5     a 0.5 0.5, 0, 0, 0, 0.5 -0.5    v -0.5    h -1 M 31 38     v 1     h -1     v -0.5     a 0.5 0.5, 0, 0, 1, 0.5 -0.5 M 31 38     v 1     h 1     v -0.5     a 0.5 0.5, 0, 0, 0, -0.5 -0.5 M40,38.5a0.5,0.5 0 1,0 1,0a0.5,0.5 0 1,0 -1,0Z M27,39.5a0.5,0.5 0 1,0 1,0a0.5,0.5 0 1,0 -1,0Z M 30 39     v 1     h -1     v -0.5     a 0.5 0.5, 0, 0, 1, 0.5 -0.5 M30,39h1v1h-1Z M31,39h1v1h-1Z M 35 39    h 1    v 0.5    a 0.5 0.5, 0, 0, 1, -1 0 M30,40h1v1h-1Z M31,40h1v1h-1Z" fill="#16a34a" fill-rule="nonzero" data-qr-palette-index="3"/></g></g></svg></g></g></svg>