<svg width="111" height="111" viewBox="0 0 111 111" fill="none" xmlns="http://www.w3.org/2000/svg">
<path fill-rule="evenodd" clip-rule="evenodd" d="M89.9637 35.6412C83.8018 28.0122 76.7597 19.0628 74.4123 15.5417C66.1965 3.65814 54.4596 -1.62347 44.9234 2.48444C41.1089 4.09828 18.5154 36.3747 10.7397 51.486C9.27258 54.2735 9.56601 57.6478 11.62 59.9952C17.9285 67.7709 25.7042 77.4538 35.2405 91.5381C54.3129 119.413 69.5709 107.823 68.5439 102.541C68.1038 100.488 68.6906 98.1387 69.8643 97.2584C72.5051 95.2045 96.2723 55.5924 99.2065 53.2451C102.141 50.6042 101.847 50.3108 89.9637 35.6397V35.6412ZM56.807 82.8807L29.8122 55.5939C32.5997 51.7794 35.5339 47.9649 44.0431 34.7609C53.1392 20.6766 52.5524 20.97 57.3938 28.1589C61.7952 34.9076 71.9183 45.4708 77.3466 51.486C64.5827 68.9446 63.1156 70.557 56.807 82.8807Z" fill="black"/>
</svg>
