<svg width="111" height="111" viewBox="0 0 111 111" fill="none" xmlns="http://www.w3.org/2000/svg">
<path fill-rule="evenodd" clip-rule="evenodd" d="M90.81 1.82173C89.3753 2.37709 67.8551 15.0578 57.9049 14.6876C54.2488 14.5487 52.4439 16.3536 54.8042 17.742C56.5628 18.7602 61.4685 25.5634 62.3015 26.6278C62.2552 26.6741 46.5663 34.9582 42.7714 49.629C42.6326 50.1843 41.383 51.2025 39.8095 52.1281C27.1288 59.2089 17.5488 78.0911 15.7902 99.38C15.6513 101.277 15.2811 103.962 15.0034 105.35C13.939 110.857 22.2693 112.338 23.4263 100.306C25.0461 83.7836 28.6097 73.1855 35.6905 63.9758C39.8095 58.561 40.0871 58.4222 40.0871 61.708C40.0871 76.5639 60.8669 81.0993 70.5394 69.6682C77.8516 61.0601 71.6501 47.7778 55.4521 47.7778C53.0918 47.7778 51.1943 47.6852 51.1943 47.5464C51.2869 44.3993 60.3578 32.6442 64.4767 30.2839C65.2634 29.8211 71.0947 35.8838 70.9559 37.0871C70.7245 39.1697 75.8153 39.9102 77.5739 38.0127C77.9905 37.5499 79.7028 34.264 81.3226 30.7004C84.8862 22.8328 87.9407 18.1586 92.4761 10.8001C96.3173 4.4134 97.7057 -0.862522 90.81 1.82173ZM48.1861 57.728C49.2043 52.4058 55.0356 49.5364 59.895 51.943C66.6056 55.2751 66.9758 61.3841 64.6618 66.1046C58.4603 78.8779 45.7796 70.3624 48.1861 57.728Z" fill="black"/>
</svg>
