<svg width="111" height="111" viewBox="0 0 111 111" fill="none" xmlns="http://www.w3.org/2000/svg">
<path d="M17.007 77.4393C-7.0427 46.3586 -3.44746 16.7163 25.3162 9.44573C34.1051 7.20878 45.3711 9.76531 51.6029 15.3585L54.7991 18.2346L59.5131 15.438C86.7584 -1.02102 120.316 29.3405 106.094 57.5445C93.1497 83.192 51.0438 110.757 42.4149 99.2514C39.8579 95.8163 41.1361 95.3366 47.9276 97.0145C54.3995 98.6123 84.2814 72.0862 91.712 58.1042C100.66 41.325 98.903 32.2166 84.6009 20.7117C78.6887 15.9977 69.5002 18.0746 62.3091 25.9048C56.6364 31.9771 50.7242 32.4567 45.8501 24.7866C32.0282 3.21392 9.33629 20.3121 15.8082 47.3974C18.5248 58.5833 21.4814 64.1765 32.7468 79.0371C40.4175 89.1043 40.6565 89.5839 38.1 90.9422C33.2259 93.5787 25.6358 88.7052 17.007 77.4393Z" fill="black"/>
<path d="M76.3723 31.2592C72.4569 30.54 75.7326 26.1456 79.4079 27.4238C82.4441 28.5426 86.679 30.3805 88.3569 35.094C90.1948 40.0475 86.5189 44.8416 84.4415 44.2825C82.6041 43.8028 82.045 41.7254 82.2845 37.491C82.5241 33.2561 80.2871 31.9778 76.3723 31.2592Z" fill="black"/>
<path d="M85.3207 56.5853C80.1271 57.7841 76.2123 53.8687 78.5292 51.2322C80.2871 49.3148 86.9185 49.1547 88.8359 51.0727C90.4338 52.7505 89.3956 55.6266 85.3207 56.5853Z" fill="black"/>
</svg>
