<?xml version="1.0" encoding="UTF-8"?>
<svg xmlns="http://www.w3.org/2000/svg" viewBox="0 0 200 200" width="200" height="200" role="img" aria-label="github QR code">
  <path d="M134.648 16.667L183.993 65.5L184.003 134.358L134.827 183.338L65.477 183.322L16.131 134.54L16 65.652L65.319 16.822L134.648 16.667Z" fill="#F1F5F9" />
  <svg x="36" y="36" width="128" height="128" viewBox="0 0 31 31" xmlns="http://www.w3.org/2000/svg">
    <path fill="transparent" d="M0,0 h31v31H0z" data-testid="background"/><path fill="#6B7280" d="M 1 1v 7h 7v -7zM 2 2h 5v 5h -5zM 23 1v 7h 7v -7zM 24 2h 5v 5h -5zM 1 23v 7h 7v -7zM 2 24h 5v 5h -5z" data-testid="finder-patterns-outer"/><rect x="3" y="3" width="3" height="3" fill="#9CA3AF" rx="0" data-testid="finder-patterns-inner"/><rect x="25" y="3" width="3" height="3" fill="#9CA3AF" rx="0" data-testid="finder-patterns-inner"/><rect x="3" y="25" width="3" height="3" fill="#9CA3AF" rx="0" data-testid="finder-patterns-inner"/><g data-qr-layer="dot-palette" data-qr-palette-size="4"><g fill="#9CA3AF" data-qr-layer="dot-palette-fill" data-qr-palette-index="0"><path d="M16,2h1v1h-1Z" fill="#9CA3AF" data-qr-palette-index="0"/><path d="M20,2h1v1h-1Z" fill="#9CA3AF" data-qr-palette-index="0"/><path d="M10,3h1v1h-1Z" fill="#9CA3AF" data-qr-palette-index="0"/><path d="M16,3h1v1h-1Z" fill="#9CA3AF" data-qr-palette-index="0"/><path d="M13,4h1v1h-1Z" fill="#9CA3AF" data-qr-palette-index="0"/><path d="M15,4h1v1h-1Z" fill="#9CA3AF" data-qr-palette-index="0"/><path d="M20,5h1v1h-1Z" fill="#9CA3AF" data-qr-palette-index="0"/><path d="M20,6h1v1h-1Z" fill="#9CA3AF" data-qr-palette-index="0"/><path d="M13,7h1v1h-1Z" fill="#9CA3AF" data-qr-palette-index="0"/><path d="M13,8h1v1h-1Z" fill="#9CA3AF" data-qr-palette-index="0"/><path d="M15,8h1v1h-1Z" fill="#9CA3AF" data-qr-palette-index="0"/><path d="M16,8h1v1h-1Z" fill="#9CA3AF" data-qr-palette-index="0"/><path d="M18,8h1v1h-1Z" fill="#9CA3AF" data-qr-palette-index="0"/><path d="M4,9h1v1h-1Z" fill="#9CA3AF" data-qr-palette-index="0"/><path d="M17,9h1v1h-1Z" fill="#9CA3AF" data-qr-palette-index="0"/><path d="M5,11h1v1h-1Z" fill="#9CA3AF" data-qr-palette-index="0"/><path d="M13,11h1v1h-1Z" fill="#9CA3AF" data-qr-palette-index="0"/><path d="M28,11h1v1h-1Z" fill="#9CA3AF" data-qr-palette-index="0"/><path d="M1,12h1v1h-1Z" fill="#9CA3AF" data-qr-palette-index="0"/><path d="M11,12h1v1h-1Z" fill="#9CA3AF" data-qr-palette-index="0"/><path d="M1,13h1v1h-1Z" fill="#9CA3AF" data-qr-palette-index="0"/><path d="M4,13h1v1h-1Z" fill="#9CA3AF" data-qr-palette-index="0"/><path d="M9,13h1v1h-1Z" fill="#9CA3AF" data-qr-palette-index="0"/><path d="M10,13h1v1h-1Z" fill="#9CA3AF" data-qr-palette-index="0"/><path d="M19,13h1v1h-1Z" fill="#9CA3AF" data-qr-palette-index="0"/><path d="M22,13h1v1h-1Z" fill="#9CA3AF" data-qr-palette-index="0"/><path d="M11,15h1v1h-1Z" fill="#9CA3AF" data-qr-palette-index="0"/><path d="M20,16h1v1h-1Z" fill="#9CA3AF" data-qr-palette-index="0"/><path d="M21,16h1v1h-1Z" fill="#9CA3AF" data-qr-palette-index="0"/><path d="M1,17h1v1h-1Z" fill="#9CA3AF" data-qr-palette-index="0"/><path d="M26,17h1v1h-1Z" fill="#9CA3AF" data-qr-palette-index="0"/><path d="M28,17h1v1h-1Z" fill="#9CA3AF" data-qr-palette-index="0"/><path d="M2,18h1v1h-1Z" fill="#9CA3AF" data-qr-palette-index="0"/><path d="M9,18h1v1h-1Z" fill="#9CA3AF" data-qr-palette-index="0"/><path d="M20,18h1v1h-1Z" fill="#9CA3AF" data-qr-palette-index="0"/><path d="M21,18h1v1h-1Z" fill="#9CA3AF" data-qr-palette-index="0"/><path d="M24,18h1v1h-1Z" fill="#9CA3AF" data-qr-palette-index="0"/><path d="M5,19h1v1h-1Z" fill="#9CA3AF" data-qr-palette-index="0"/><path d="M7,19h1v1h-1Z" fill="#9CA3AF" data-qr-palette-index="0"/><path d="M17,19h1v1h-1Z" fill="#9CA3AF" data-qr-palette-index="0"/><path d="M3,20h1v1h-1Z" fill="#9CA3AF" data-qr-palette-index="0"/><path d="M9,20h1v1h-1Z" fill="#9CA3AF" data-qr-palette-index="0"/><path d="M2,21h1v1h-1Z" fill="#9CA3AF" data-qr-palette-index="0"/><path d="M3,21h1v1h-1Z" fill="#9CA3AF" data-qr-palette-index="0"/><path d="M14,21h1v1h-1Z" fill="#9CA3AF" data-qr-palette-index="0"/><path d="M18,21h1v1h-1Z" fill="#9CA3AF" data-qr-palette-index="0"/><path d="M23,21h1v1h-1Z" fill="#9CA3AF" data-qr-palette-index="0"/><path d="M24,21h1v1h-1Z" fill="#9CA3AF" data-qr-palette-index="0"/><path d="M17,22h1v1h-1Z" fill="#9CA3AF" data-qr-palette-index="0"/><path d="M18,22h1v1h-1Z" fill="#9CA3AF" data-qr-palette-index="0"/><path d="M26,22h1v1h-1Z" fill="#9CA3AF" data-qr-palette-index="0"/><path d="M9,23h1v1h-1Z" fill="#9CA3AF" data-qr-palette-index="0"/><path d="M15,23h1v1h-1Z" fill="#9CA3AF" data-qr-palette-index="0"/><path d="M21,23h1v1h-1Z" fill="#9CA3AF" data-qr-palette-index="0"/><path d="M25,23h1v1h-1Z" fill="#9CA3AF" data-qr-palette-index="0"/><path d="M28,23h1v1h-1Z" fill="#9CA3AF" data-qr-palette-index="0"/><path d="M19,24h1v1h-1Z" fill="#9CA3AF" data-qr-palette-index="0"/><path d="M12,25h1v1h-1Z" fill="#9CA3AF" data-qr-palette-index="0"/><path d="M19,25h1v1h-1Z" fill="#9CA3AF" data-qr-palette-index="0"/><path d="M23,25h1v1h-1Z" fill="#9CA3AF" data-qr-palette-index="0"/><path d="M26,25h1v1h-1Z" fill="#9CA3AF" data-qr-palette-index="0"/><path d="M27,25h1v1h-1Z" fill="#9CA3AF" data-qr-palette-index="0"/><path d="M29,25h1v1h-1Z" fill="#9CA3AF" data-qr-palette-index="0"/><path d="M12,27h1v1h-1Z" fill="#9CA3AF" data-qr-palette-index="0"/><path d="M17,27h1v1h-1Z" fill="#9CA3AF" data-qr-palette-index="0"/><path d="M24,27h1v1h-1Z" fill="#9CA3AF" data-qr-palette-index="0"/><path d="M11,28h1v1h-1Z" fill="#9CA3AF" data-qr-palette-index="0"/><path d="M28,28h1v1h-1Z" fill="#9CA3AF" data-qr-palette-index="0"/><path d="M15,29h1v1h-1Z" fill="#9CA3AF" data-qr-palette-index="0"/><path d="M18,29h1v1h-1Z" fill="#9CA3AF" data-qr-palette-index="0"/></g><g fill="#6B7280" data-qr-layer="dot-palette-fill" data-qr-palette-index="1"><path d="M21,1h1v1h-1Z" fill="#6B7280" data-qr-palette-index="1"/><path d="M19,2h1v1h-1Z" fill="#6B7280" data-qr-palette-index="1"/><path d="M17,4h1v1h-1Z" fill="#6B7280" data-qr-palette-index="1"/><path d="M9,5h1v1h-1Z" fill="#6B7280" data-qr-palette-index="1"/><path d="M10,5h1v1h-1Z" fill="#6B7280" data-qr-palette-index="1"/><path d="M17,7h1v1h-1Z" fill="#6B7280" data-qr-palette-index="1"/><path d="M21,7h1v1h-1Z" fill="#6B7280" data-qr-palette-index="1"/><path d="M21,8h1v1h-1Z" fill="#6B7280" data-qr-palette-index="1"/><path d="M8,9h1v1h-1Z" fill="#6B7280" data-qr-palette-index="1"/><path d="M23,9h1v1h-1Z" fill="#6B7280" data-qr-palette-index="1"/><path d="M5,10h1v1h-1Z" fill="#6B7280" data-qr-palette-index="1"/><path d="M14,10h1v1h-1Z" fill="#6B7280" data-qr-palette-index="1"/><path d="M29,10h1v1h-1Z" fill="#6B7280" data-qr-palette-index="1"/><path d="M6,12h1v1h-1Z" fill="#6B7280" data-qr-palette-index="1"/><path d="M10,12h1v1h-1Z" fill="#6B7280" data-qr-palette-index="1"/><path d="M26,12h1v1h-1Z" fill="#6B7280" data-qr-palette-index="1"/><path d="M29,12h1v1h-1Z" fill="#6B7280" data-qr-palette-index="1"/><path d="M7,13h1v1h-1Z" fill="#6B7280" data-qr-palette-index="1"/><path d="M11,13h1v1h-1Z" fill="#6B7280" data-qr-palette-index="1"/><path d="M4,14h1v1h-1Z" fill="#6B7280" data-qr-palette-index="1"/><path d="M11,14h1v1h-1Z" fill="#6B7280" data-qr-palette-index="1"/><path d="M24,14h1v1h-1Z" fill="#6B7280" data-qr-palette-index="1"/><path d="M26,14h1v1h-1Z" fill="#6B7280" data-qr-palette-index="1"/><path d="M1,15h1v1h-1Z" fill="#6B7280" data-qr-palette-index="1"/><path d="M24,15h1v1h-1Z" fill="#6B7280" data-qr-palette-index="1"/><path d="M25,15h1v1h-1Z" fill="#6B7280" data-qr-palette-index="1"/><path d="M6,16h1v1h-1Z" fill="#6B7280" data-qr-palette-index="1"/><path d="M9,16h1v1h-1Z" fill="#6B7280" data-qr-palette-index="1"/><path d="M25,16h1v1h-1Z" fill="#6B7280" data-qr-palette-index="1"/><path d="M24,17h1v1h-1Z" fill="#6B7280" data-qr-palette-index="1"/><path d="M25,17h1v1h-1Z" fill="#6B7280" data-qr-palette-index="1"/><path d="M27,18h1v1h-1Z" fill="#6B7280" data-qr-palette-index="1"/><path d="M3,19h1v1h-1Z" fill="#6B7280" data-qr-palette-index="1"/><path d="M10,19h1v1h-1Z" fill="#6B7280" data-qr-palette-index="1"/><path d="M14,19h1v1h-1Z" fill="#6B7280" data-qr-palette-index="1"/><path d="M18,19h1v1h-1Z" fill="#6B7280" data-qr-palette-index="1"/><path d="M20,19h1v1h-1Z" fill="#6B7280" data-qr-palette-index="1"/><path d="M23,19h1v1h-1Z" fill="#6B7280" data-qr-palette-index="1"/><path d="M5,20h1v1h-1Z" fill="#6B7280" data-qr-palette-index="1"/><path d="M8,20h1v1h-1Z" fill="#6B7280" data-qr-palette-index="1"/><path d="M12,20h1v1h-1Z" fill="#6B7280" data-qr-palette-index="1"/><path d="M19,20h1v1h-1Z" fill="#6B7280" data-qr-palette-index="1"/><path d="M20,20h1v1h-1Z" fill="#6B7280" data-qr-palette-index="1"/><path d="M22,20h1v1h-1Z" fill="#6B7280" data-qr-palette-index="1"/><path d="M23,20h1v1h-1Z" fill="#6B7280" data-qr-palette-index="1"/><path d="M17,21h1v1h-1Z" fill="#6B7280" data-qr-palette-index="1"/><path d="M21,21h1v1h-1Z" fill="#6B7280" data-qr-palette-index="1"/><path d="M22,21h1v1h-1Z" fill="#6B7280" data-qr-palette-index="1"/><path d="M27,21h1v1h-1Z" fill="#6B7280" data-qr-palette-index="1"/><path d="M12,23h1v1h-1Z" fill="#6B7280" data-qr-palette-index="1"/><path d="M23,23h1v1h-1Z" fill="#6B7280" data-qr-palette-index="1"/><path d="M27,23h1v1h-1Z" fill="#6B7280" data-qr-palette-index="1"/><path d="M12,24h1v1h-1Z" fill="#6B7280" data-qr-palette-index="1"/><path d="M21,24h1v1h-1Z" fill="#6B7280" data-qr-palette-index="1"/><path d="M25,24h1v1h-1Z" fill="#6B7280" data-qr-palette-index="1"/><path d="M29,24h1v1h-1Z" fill="#6B7280" data-qr-palette-index="1"/><path d="M11,25h1v1h-1Z" fill="#6B7280" data-qr-palette-index="1"/><path d="M17,25h1v1h-1Z" fill="#6B7280" data-qr-palette-index="1"/><path d="M21,25h1v1h-1Z" fill="#6B7280" data-qr-palette-index="1"/><path d="M22,25h1v1h-1Z" fill="#6B7280" data-qr-palette-index="1"/><path d="M25,25h1v1h-1Z" fill="#6B7280" data-qr-palette-index="1"/><path d="M28,25h1v1h-1Z" fill="#6B7280" data-qr-palette-index="1"/><path d="M11,26h1v1h-1Z" fill="#6B7280" data-qr-palette-index="1"/><path d="M18,26h1v1h-1Z" fill="#6B7280" data-qr-palette-index="1"/><path d="M27,26h1v1h-1Z" fill="#6B7280" data-qr-palette-index="1"/><path d="M15,27h1v1h-1Z" fill="#6B7280" data-qr-palette-index="1"/><path d="M19,27h1v1h-1Z" fill="#6B7280" data-qr-palette-index="1"/><path d="M15,28h1v1h-1Z" fill="#6B7280" data-qr-palette-index="1"/><path d="M20,28h1v1h-1Z" fill="#6B7280" data-qr-palette-index="1"/><path d="M24,29h1v1h-1Z" fill="#6B7280" data-qr-palette-index="1"/></g><g fill="#374151" data-qr-layer="dot-palette-fill" data-qr-palette-index="2"><path d="M13,1h1v1h-1Z" fill="#374151" data-qr-palette-index="2"/><path d="M13,2h1v1h-1Z" fill="#374151" data-qr-palette-index="2"/><path d="M18,2h1v1h-1Z" fill="#374151" data-qr-palette-index="2"/><path d="M14,3h1v1h-1Z" fill="#374151" data-qr-palette-index="2"/><path d="M11,4h1v1h-1Z" fill="#374151" data-qr-palette-index="2"/><path d="M20,4h1v1h-1Z" fill="#374151" data-qr-palette-index="2"/><path d="M16,5h1v1h-1Z" fill="#374151" data-qr-palette-index="2"/><path d="M17,5h1v1h-1Z" fill="#374151" data-qr-palette-index="2"/><path d="M9,7h1v1h-1Z" fill="#374151" data-qr-palette-index="2"/><path d="M11,7h1v1h-1Z" fill="#374151" data-qr-palette-index="2"/><path d="M15,7h1v1h-1Z" fill="#374151" data-qr-palette-index="2"/><path d="M19,7h1v1h-1Z" fill="#374151" data-qr-palette-index="2"/><path d="M9,8h1v1h-1Z" fill="#374151" data-qr-palette-index="2"/><path d="M19,8h1v1h-1Z" fill="#374151" data-qr-palette-index="2"/><path d="M3,9h1v1h-1Z" fill="#374151" data-qr-palette-index="2"/><path d="M9,9h1v1h-1Z" fill="#374151" data-qr-palette-index="2"/><path d="M12,9h1v1h-1Z" fill="#374151" data-qr-palette-index="2"/><path d="M14,9h1v1h-1Z" fill="#374151" data-qr-palette-index="2"/><path d="M9,10h1v1h-1Z" fill="#374151" data-qr-palette-index="2"/><path d="M25,10h1v1h-1Z" fill="#374151" data-qr-palette-index="2"/><path d="M1,11h1v1h-1Z" fill="#374151" data-qr-palette-index="2"/><path d="M7,11h1v1h-1Z" fill="#374151" data-qr-palette-index="2"/><path d="M14,11h1v1h-1Z" fill="#374151" data-qr-palette-index="2"/><path d="M2,12h1v1h-1Z" fill="#374151" data-qr-palette-index="2"/><path d="M5,12h1v1h-1Z" fill="#374151" data-qr-palette-index="2"/><path d="M25,12h1v1h-1Z" fill="#374151" data-qr-palette-index="2"/><path d="M27,13h1v1h-1Z" fill="#374151" data-qr-palette-index="2"/><path d="M2,14h1v1h-1Z" fill="#374151" data-qr-palette-index="2"/><path d="M9,14h1v1h-1Z" fill="#374151" data-qr-palette-index="2"/><path d="M29,14h1v1h-1Z" fill="#374151" data-qr-palette-index="2"/><path d="M20,15h1v1h-1Z" fill="#374151" data-qr-palette-index="2"/><path d="M21,15h1v1h-1Z" fill="#374151" data-qr-palette-index="2"/><path d="M22,15h1v1h-1Z" fill="#374151" data-qr-palette-index="2"/><path d="M26,15h1v1h-1Z" fill="#374151" data-qr-palette-index="2"/><path d="M28,15h1v1h-1Z" fill="#374151" data-qr-palette-index="2"/><path d="M29,15h1v1h-1Z" fill="#374151" data-qr-palette-index="2"/><path d="M3,16h1v1h-1Z" fill="#374151" data-qr-palette-index="2"/><path d="M26,16h1v1h-1Z" fill="#374151" data-qr-palette-index="2"/><path d="M5,17h1v1h-1Z" fill="#374151" data-qr-palette-index="2"/><path d="M7,17h1v1h-1Z" fill="#374151" data-qr-palette-index="2"/><path d="M21,17h1v1h-1Z" fill="#374151" data-qr-palette-index="2"/><path d="M3,18h1v1h-1Z" fill="#374151" data-qr-palette-index="2"/><path d="M6,19h1v1h-1Z" fill="#374151" data-qr-palette-index="2"/><path d="M15,19h1v1h-1Z" fill="#374151" data-qr-palette-index="2"/><path d="M26,20h1v1h-1Z" fill="#374151" data-qr-palette-index="2"/><path d="M27,20h1v1h-1Z" fill="#374151" data-qr-palette-index="2"/><path d="M6,21h1v1h-1Z" fill="#374151" data-qr-palette-index="2"/><path d="M7,21h1v1h-1Z" fill="#374151" data-qr-palette-index="2"/><path d="M13,21h1v1h-1Z" fill="#374151" data-qr-palette-index="2"/><path d="M25,21h1v1h-1Z" fill="#374151" data-qr-palette-index="2"/><path d="M26,21h1v1h-1Z" fill="#374151" data-qr-palette-index="2"/><path d="M29,21h1v1h-1Z" fill="#374151" data-qr-palette-index="2"/><path d="M9,22h1v1h-1Z" fill="#374151" data-qr-palette-index="2"/><path d="M12,22h1v1h-1Z" fill="#374151" data-qr-palette-index="2"/><path d="M19,22h1v1h-1Z" fill="#374151" data-qr-palette-index="2"/><path d="M25,22h1v1h-1Z" fill="#374151" data-qr-palette-index="2"/><path d="M29,22h1v1h-1Z" fill="#374151" data-qr-palette-index="2"/><path d="M10,24h1v1h-1Z" fill="#374151" data-qr-palette-index="2"/><path d="M24,25h1v1h-1Z" fill="#374151" data-qr-palette-index="2"/><path d="M16,26h1v1h-1Z" fill="#374151" data-qr-palette-index="2"/><path d="M9,27h1v1h-1Z" fill="#374151" data-qr-palette-index="2"/><path d="M10,27h1v1h-1Z" fill="#374151" data-qr-palette-index="2"/><path d="M21,27h1v1h-1Z" fill="#374151" data-qr-palette-index="2"/><path d="M22,28h1v1h-1Z" fill="#374151" data-qr-palette-index="2"/><path d="M26,28h1v1h-1Z" fill="#374151" data-qr-palette-index="2"/><path d="M11,29h1v1h-1Z" fill="#374151" data-qr-palette-index="2"/><path d="M13,29h1v1h-1Z" fill="#374151" data-qr-palette-index="2"/><path d="M22,29h1v1h-1Z" fill="#374151" data-qr-palette-index="2"/><path d="M28,29h1v1h-1Z" fill="#374151" data-qr-palette-index="2"/></g><g fill="#24292F" data-qr-layer="dot-palette-fill" data-qr-palette-index="3"><path d="M10,1h1v1h-1Z" fill="#24292F" data-qr-palette-index="3"/><path d="M14,1h1v1h-1Z" fill="#24292F" data-qr-palette-index="3"/><path d="M19,1h1v1h-1Z" fill="#24292F" data-qr-palette-index="3"/><path d="M10,2h1v1h-1Z" fill="#24292F" data-qr-palette-index="3"/><path d="M21,2h1v1h-1Z" fill="#24292F" data-qr-palette-index="3"/><path d="M11,3h1v1h-1Z" fill="#24292F" data-qr-palette-index="3"/><path d="M15,3h1v1h-1Z" fill="#24292F" data-qr-palette-index="3"/><path d="M21,3h1v1h-1Z" fill="#24292F" data-qr-palette-index="3"/><path d="M18,4h1v1h-1Z" fill="#24292F" data-qr-palette-index="3"/><path d="M21,4h1v1h-1Z" fill="#24292F" data-qr-palette-index="3"/><path d="M12,5h1v1h-1Z" fill="#24292F" data-qr-palette-index="3"/><path d="M14,5h1v1h-1Z" fill="#24292F" data-qr-palette-index="3"/><path d="M18,5h1v1h-1Z" fill="#24292F" data-qr-palette-index="3"/><path d="M13,6h1v1h-1Z" fill="#24292F" data-qr-palette-index="3"/><path d="M21,6h1v1h-1Z" fill="#24292F" data-qr-palette-index="3"/><path d="M14,8h1v1h-1Z" fill="#24292F" data-qr-palette-index="3"/><path d="M7,9h1v1h-1Z" fill="#24292F" data-qr-palette-index="3"/><path d="M21,9h1v1h-1Z" fill="#24292F" data-qr-palette-index="3"/><path d="M22,9h1v1h-1Z" fill="#24292F" data-qr-palette-index="3"/><path d="M25,9h1v1h-1Z" fill="#24292F" data-qr-palette-index="3"/><path d="M1,10h1v1h-1Z" fill="#24292F" data-qr-palette-index="3"/><path d="M2,10h1v1h-1Z" fill="#24292F" data-qr-palette-index="3"/><path d="M4,10h1v1h-1Z" fill="#24292F" data-qr-palette-index="3"/><path d="M8,10h1v1h-1Z" fill="#24292F" data-qr-palette-index="3"/><path d="M22,10h1v1h-1Z" fill="#24292F" data-qr-palette-index="3"/><path d="M3,11h1v1h-1Z" fill="#24292F" data-qr-palette-index="3"/><path d="M17,11h1v1h-1Z" fill="#24292F" data-qr-palette-index="3"/><path d="M23,11h1v1h-1Z" fill="#24292F" data-qr-palette-index="3"/><path d="M8,12h1v1h-1Z" fill="#24292F" data-qr-palette-index="3"/><path d="M20,12h1v1h-1Z" fill="#24292F" data-qr-palette-index="3"/><path d="M24,12h1v1h-1Z" fill="#24292F" data-qr-palette-index="3"/><path d="M6,13h1v1h-1Z" fill="#24292F" data-qr-palette-index="3"/><path d="M24,13h1v1h-1Z" fill="#24292F" data-qr-palette-index="3"/><path d="M28,13h1v1h-1Z" fill="#24292F" data-qr-palette-index="3"/><path d="M29,13h1v1h-1Z" fill="#24292F" data-qr-palette-index="3"/><path d="M5,14h1v1h-1Z" fill="#24292F" data-qr-palette-index="3"/><path d="M8,14h1v1h-1Z" fill="#24292F" data-qr-palette-index="3"/><path d="M10,14h1v1h-1Z" fill="#24292F" data-qr-palette-index="3"/><path d="M19,14h1v1h-1Z" fill="#24292F" data-qr-palette-index="3"/><path d="M20,14h1v1h-1Z" fill="#24292F" data-qr-palette-index="3"/><path d="M23,14h1v1h-1Z" fill="#24292F" data-qr-palette-index="3"/><path d="M27,14h1v1h-1Z" fill="#24292F" data-qr-palette-index="3"/><path d="M3,15h1v1h-1Z" fill="#24292F" data-qr-palette-index="3"/><path d="M6,15h1v1h-1Z" fill="#24292F" data-qr-palette-index="3"/><path d="M7,15h1v1h-1Z" fill="#24292F" data-qr-palette-index="3"/><path d="M19,15h1v1h-1Z" fill="#24292F" data-qr-palette-index="3"/><path d="M5,16h1v1h-1Z" fill="#24292F" data-qr-palette-index="3"/><path d="M11,16h1v1h-1Z" fill="#24292F" data-qr-palette-index="3"/><path d="M22,16h1v1h-1Z" fill="#24292F" data-qr-palette-index="3"/><path d="M23,16h1v1h-1Z" fill="#24292F" data-qr-palette-index="3"/><path d="M8,17h1v1h-1Z" fill="#24292F" data-qr-palette-index="3"/><path d="M22,17h1v1h-1Z" fill="#24292F" data-qr-palette-index="3"/><path d="M23,17h1v1h-1Z" fill="#24292F" data-qr-palette-index="3"/><path d="M6,18h1v1h-1Z" fill="#24292F" data-qr-palette-index="3"/><path d="M10,18h1v1h-1Z" fill="#24292F" data-qr-palette-index="3"/><path d="M23,18h1v1h-1Z" fill="#24292F" data-qr-palette-index="3"/><path d="M1,19h1v1h-1Z" fill="#24292F" data-qr-palette-index="3"/><path d="M4,19h1v1h-1Z" fill="#24292F" data-qr-palette-index="3"/><path d="M11,19h1v1h-1Z" fill="#24292F" data-qr-palette-index="3"/><path d="M24,19h1v1h-1Z" fill="#24292F" data-qr-palette-index="3"/><path d="M27,19h1v1h-1Z" fill="#24292F" data-qr-palette-index="3"/><path d="M6,20h1v1h-1Z" fill="#24292F" data-qr-palette-index="3"/><path d="M11,20h1v1h-1Z" fill="#24292F" data-qr-palette-index="3"/><path d="M17,20h1v1h-1Z" fill="#24292F" data-qr-palette-index="3"/><path d="M25,20h1v1h-1Z" fill="#24292F" data-qr-palette-index="3"/><path d="M29,20h1v1h-1Z" fill="#24292F" data-qr-palette-index="3"/><path d="M19,21h1v1h-1Z" fill="#24292F" data-qr-palette-index="3"/><path d="M21,22h1v1h-1Z" fill="#24292F" data-qr-palette-index="3"/><path d="M17,23h1v1h-1Z" fill="#24292F" data-qr-palette-index="3"/><path d="M20,23h1v1h-1Z" fill="#24292F" data-qr-palette-index="3"/><path d="M11,24h1v1h-1Z" fill="#24292F" data-qr-palette-index="3"/><path d="M16,24h1v1h-1Z" fill="#24292F" data-qr-palette-index="3"/><path d="M15,25h1v1h-1Z" fill="#24292F" data-qr-palette-index="3"/><path d="M9,26h1v1h-1Z" fill="#24292F" data-qr-palette-index="3"/><path d="M20,26h1v1h-1Z" fill="#24292F" data-qr-palette-index="3"/><path d="M25,26h1v1h-1Z" fill="#24292F" data-qr-palette-index="3"/><path d="M28,26h1v1h-1Z" fill="#24292F" data-qr-palette-index="3"/><path d="M13,27h1v1h-1Z" fill="#24292F" data-qr-palette-index="3"/><path d="M27,27h1v1h-1Z" fill="#24292F" data-qr-palette-index="3"/><path d="M29,27h1v1h-1Z" fill="#24292F" data-qr-palette-index="3"/><path d="M12,28h1v1h-1Z" fill="#24292F" data-qr-palette-index="3"/><path d="M19,28h1v1h-1Z" fill="#24292F" data-qr-palette-index="3"/><path d="M25,28h1v1h-1Z" fill="#24292F" data-qr-palette-index="3"/><path d="M19,29h1v1h-1Z" fill="#24292F" data-qr-palette-index="3"/><path d="M21,29h1v1h-1Z" fill="#24292F" data-qr-palette-index="3"/></g></g><image href="data:image/svg+xml,%3Csvg%20stroke%3D%22%2324292F%22%20fill%3D%22%2324292F%22%20stroke-width%3D%220%22%20role%3D%22img%22%20viewBox%3D%220%200%2024%2024%22%20color%3D%22%2324292F%22%20style%3D%22color%3A%2324292F%22%20height%3D%22256%22%20width%3D%22256%22%20xmlns%3D%22http%3A%2F%2Fwww.w3.org%2F2000%2Fsvg%22%3E%3Ctitle%3EGitHub%3C%2Ftitle%3E%3Cpath%20d%3D%22M12%20.297c-6.63%200-12%205.373-12%2012%200%205.303%203.438%209.8%208.205%2011.385.6.113.82-.258.82-.577%200-.285-.01-1.04-.015-2.04-3.338.724-4.042-1.61-4.042-1.61C4.422%2018.07%203.633%2017.7%203.633%2017.7c-1.087-.744.084-.729.084-.729%201.205.084%201.838%201.236%201.838%201.236%201.07%201.835%202.809%201.305%203.495.998.108-.776.417-1.305.76-1.605-2.665-.3-5.466-1.332-5.466-5.93%200-1.31.465-2.38%201.235-3.22-.135-.303-.54-1.523.105-3.176%200%200%201.005-.322%203.3%201.23.96-.267%201.98-.399%203-.405%201.02.006%202.04.138%203%20.405%202.28-1.552%203.285-1.23%203.285-1.23.645%201.653.24%202.873.12%203.176.765.84%201.23%201.91%201.23%203.22%200%204.61-2.805%205.625-5.475%205.92.42.36.81%201.096.81%202.22%200%201.606-.015%202.896-.015%203.286%200%20.315.21.69.825.57C20.565%2022.092%2024%2017.592%2024%2012.297c0-6.627-5.373-12-12-12%22%3E%3C%2Fpath%3E%3C%2Fsvg%3E" height="5.720238095238096" width="5.720238095238096" x="12.639880952380953" y="12.639880952380953" preserveAspectRatio="none" opacity="1" crossorigin="anonymous"/>
  </svg>
</svg>